<?xml version="1.0" encoding="utf-8" ?><svg xmlns="http://www.w3.org/2000/svg" xmlns:xlink="http://www.w3.org/1999/xlink" width="1024" height="1024" viewBox="0 0 1024 1024"><path fill="#FEFEFE" d="M0 0L1024 0L1024 1024L0 1024L0 0ZM333.41 71.4223C332.085 72.2831 331.109 72.7859 330.542 74.3523C330.636 82.387 335.426 97.9143 337.225 106.553C339.126 115.685 340.227 125.345 342.743 134.283C343.089 135.513 343.501 136.211 344.369 137.136C345.673 137.713 346.574 137.879 347.967 137.994C349.185 137.137 350.232 136.538 350.578 134.989C351.797 129.541 340.75 77.4157 337.621 73.0918C336.796 71.9527 335.585 71.6159 334.237 71.4904C333.962 71.4648 333.686 71.445 333.41 71.4223ZM361.955 75.4398C360.936 76.7299 359.859 77.8643 359.945 79.6131C360.296 86.7142 363.263 96.9323 364.671 104.224C366.308 112.703 367.307 121.524 369.359 129.882C369.755 131.494 369.957 132.001 371.143 133.156C372.679 133.653 373.631 133.794 375.243 133.71C376.305 132.755 377.343 131.964 377.505 130.451C377.974 126.079 369.389 78.6846 367.062 76.4762C365.608 75.0963 363.781 75.3071 361.955 75.4398ZM293.354 84.9521C292.088 85.7754 290.209 86.8545 289.976 88.5049C289.6 91.1706 310.363 147.877 313.003 153.58C313.284 154.188 313.706 154.896 314.264 155.287C315.108 155.88 316.451 155.925 317.451 156.036C318.799 155.254 320.068 154.696 320.814 153.255C320.962 149.275 298.626 87.7381 296.439 85.8748C295.714 85.257 294.272 85.1086 293.354 84.9521ZM266.695 98.4324C265.182 99.1352 263.967 99.5725 263.035 101.041C262.626 102.377 262.766 103.091 263.151 104.442C264.556 109.374 266.646 114.245 268.415 119.06L278.645 146.838C280.541 151.966 282.079 158.719 284.522 163.424C285.278 164.881 286.51 165.412 288.046 165.736C288.243 165.778 288.444 165.803 288.644 165.836C290.159 165.088 291.471 164.613 292.331 163.066C292.571 161.009 291.937 159.09 291.343 157.14C289.212 150.148 272.639 103.628 269.995 100.058C269.17 98.9447 267.958 98.7529 266.695 98.4324ZM454.703 144.698C434.968 146.558 418.08 156.033 401.709 166.505C384.455 166.429 371.981 168.319 356.193 175.638C336.455 173.196 319.446 182.098 304.214 193.986C300.749 196.69 297.368 199.719 294.484 203.043C291.764 206.179 289.38 210.728 285.949 213.074C281.338 216.226 274.845 218.591 269.744 221.067C258.067 226.65 246.482 232.421 234.99 238.375C211.357 250.796 187.778 264.271 165.828 279.514C138.09 298.778 87.9709 339.759 83.8757 375.103C79.9811 408.716 108.312 446.81 128.483 472.02C133.981 478.892 139.862 485.494 145.568 492.196C148.934 496.15 152.1 500.371 155.658 504.145L155.058 504.748C151.293 508.491 141.328 514.252 141.082 519.634C144.421 526.152 152.004 532.165 157.132 537.463C180.096 560.877 203.471 583.884 227.247 606.473C232.027 611.005 243.015 619.717 246.483 624.048C247.137 624.863 247.012 625.761 246.903 626.723C246.033 627.484 245.895 627.632 244.675 627.576C240.898 627.401 237.287 626.137 233.323 626.089C215.989 625.881 196.756 632.3 183.413 643.458C167.548 656.725 161.605 677.421 159.88 697.312C157.054 729.897 160.545 763.52 164.752 795.863C166.143 806.561 168.467 817.273 169.363 828.01C154.113 829.235 138.609 828.909 123.308 829.157C101.475 829.68 79.6439 830.314 57.8168 831.06C48.8927 831.405 39.3712 830.722 30.584 831.788C28.3725 832.056 26.7025 832.424 24.8238 833.636C24.1091 834.631 23.7381 835.416 23.9508 836.686C24.1687 837.988 24.8816 838.979 26.0122 839.628C27.5195 840.493 30.2635 840.397 31.9822 840.392C40.9718 840.367 50.0022 839.761 58.9919 839.506L130.751 837.518C241.424 834.638 352.082 831.193 462.721 827.183C461.702 832.846 460.605 838.455 459.265 844.052L362.029 847.914C346.422 848.373 330.826 849.139 315.25 850.212C306.966 850.784 298.448 851.239 290.268 852.632C288.641 852.909 286.373 853.23 285.187 854.503C282.773 857.096 283.36 871.701 283.971 875.481C284.254 877.23 284.894 879.157 286.45 880.163C289.513 882.144 390.635 899.808 402.272 901.728C414.343 904.983 427.067 906.738 439.376 908.942C448.512 910.578 458.073 912.911 467.315 913.476C477.66 914.108 488.435 913.369 498.813 913.067L542.784 911.844C576.11 910.633 609.57 910.138 642.918 909.477L792.251 906.104L842.176 904.872C850.61 904.615 859.152 904.716 867.536 903.777C869.647 902.142 870.626 900.189 870.972 897.536C871.505 893.46 870.66 889.109 871.49 885.113C873.148 877.124 876.649 869.097 879.082 861.269C883.859 845.47 888.521 829.637 893.066 813.77C918.989 813.478 944.907 812.819 970.812 811.796C977.342 811.542 987.211 812.249 993.241 811.349C994.883 811.104 996.944 810.389 998.034 809.056C998.757 808.173 998.905 807.572 999.165 806.496C998.842 805.107 998.774 804.638 997.599 803.699C996.621 802.918 994.875 802.67 993.666 802.626C985.782 802.337 977.775 803.297 969.881 803.418L895.681 805.226C910.185 754.655 924.391 703.999 938.3 653.261C941.361 642.073 954.217 600.573 953.519 592.692C952.036 590.664 950.626 589.769 948.099 589.425C944.703 588.963 940.894 589.422 937.459 589.471L919.94 589.574C891.829 589.859 863.72 590.331 835.615 590.989L703.012 593.399L656.057 594.366C647.093 594.528 638.037 594.257 629.099 594.948C624.85 587.643 618.946 580.718 613.834 573.965C591.436 544.375 561.752 507.381 530.817 487.078C524.6 482.997 516.919 479.901 509.754 477.971C505.136 476.726 500.378 475.847 495.711 474.784C502.517 469.375 509.615 460.98 513.369 453.078C517.105 445.214 518.698 436.216 520.573 427.769C525.22 406.837 528.665 385.446 532.186 364.286C533.607 355.747 534.222 346.702 536.287 338.336C548.884 340.54 561.076 341.678 572.132 333.864C579.138 328.913 582.975 321.557 584.264 313.23C586.797 296.864 580.09 281.315 570.938 268.168C578.411 267.631 587.217 266.942 592.487 260.843C595.116 257.8 596.095 253.925 595.681 249.966C594.398 237.711 583.374 225.372 574.082 218.131C563.204 209.654 550.742 202.915 537.38 199.418C541.577 195.314 547.423 190.101 547.334 183.706C547.293 180.819 545.899 178.314 543.831 176.366C533.945 167.051 513.635 166.815 501.091 167.494C489.478 168.123 477.754 170.592 466.674 174.085C469.854 168.723 476.426 160.127 474.908 153.598C474.275 150.877 472.283 148.789 469.93 147.408C465.544 144.832 459.707 144.167 454.703 144.698ZM219.496 218.499C188.277 230.113 159.516 245.304 133.553 266.313C130.514 268.772 123.831 273.323 122.452 276.936C121.951 278.248 122.146 278.541 122.634 279.773C123.894 280.595 124.002 280.744 125.485 280.678C148.223 260.185 175.093 241.916 203.635 230.544C208.169 228.737 222.361 224.811 223.881 220.486C223.55 219.31 223.47 219.286 222.491 218.54C221.472 218.493 220.515 218.444 219.496 218.499ZM173.962 221.465C166.66 225.442 132.383 244.136 130.299 250.128C129.878 251.338 130.353 251.776 130.972 252.742C132.184 253.223 132.485 253.042 133.781 252.759C143.064 246.046 152.658 239.773 162.531 233.963C167.238 231.188 172.289 228.855 176.866 225.881C177.763 225.298 178.053 224.75 178.415 223.77C178.205 222.898 178.339 222.663 177.538 222.109C176.364 221.298 175.325 221.365 173.962 221.465Z"/><path fill="#010101" d="M347.967 137.994C346.574 137.879 345.673 137.713 344.369 137.136C343.501 136.211 343.089 135.513 342.743 134.283C340.227 125.345 339.126 115.685 337.225 106.553C335.426 97.9143 330.636 82.387 330.542 74.3523C331.109 72.7859 332.085 72.2831 333.41 71.4223C333.686 71.445 333.962 71.4648 334.237 71.4904C335.585 71.6159 336.796 71.9527 337.621 73.0918C340.75 77.4157 351.797 129.541 350.578 134.989C350.232 136.538 349.185 137.137 347.967 137.994Z"/><path fill="#010101" d="M375.243 133.71C373.631 133.794 372.679 133.653 371.143 133.156C369.957 132.001 369.755 131.494 369.359 129.882C367.307 121.524 366.308 112.703 364.671 104.224C363.263 96.9323 360.296 86.7142 359.945 79.6131C359.859 77.8643 360.936 76.7299 361.955 75.4398C363.781 75.3071 365.608 75.0963 367.062 76.4762C369.389 78.6846 377.974 126.079 377.505 130.451C377.343 131.964 376.305 132.755 375.243 133.71Z"/><path fill="#010101" d="M317.451 156.036C316.451 155.925 315.108 155.88 314.264 155.287C313.706 154.896 313.284 154.188 313.003 153.58C310.363 147.877 289.6 91.1706 289.976 88.5049C290.209 86.8545 292.088 85.7754 293.354 84.9521C294.272 85.1086 295.714 85.257 296.439 85.8748C298.626 87.7381 320.962 149.275 320.814 153.255C320.068 154.696 318.799 155.254 317.451 156.036Z"/><path fill="#010101" d="M288.644 165.836C288.444 165.803 288.243 165.778 288.046 165.736C286.51 165.412 285.278 164.881 284.522 163.424C282.079 158.719 280.541 151.966 278.645 146.838L268.415 119.06C266.646 114.245 264.556 109.374 263.151 104.442C262.766 103.091 262.626 102.377 263.035 101.041C263.967 99.5725 265.182 99.1352 266.695 98.4324C267.958 98.7529 269.17 98.9447 269.995 100.058C272.639 103.628 289.212 150.148 291.343 157.14C291.937 159.09 292.571 161.009 292.331 163.066C291.471 164.613 290.159 165.088 288.644 165.836Z"/><path fill="#010101" d="M401.709 166.505C418.08 156.033 434.968 146.558 454.703 144.698C459.707 144.167 465.544 144.832 469.93 147.408C472.283 148.789 474.275 150.877 474.908 153.598C476.426 160.127 469.854 168.723 466.674 174.085C477.754 170.592 489.478 168.123 501.091 167.494C513.635 166.815 533.945 167.051 543.831 176.366C545.899 178.314 547.293 180.819 547.334 183.706C547.423 190.101 541.577 195.314 537.38 199.418C550.742 202.915 563.204 209.654 574.082 218.131C583.374 225.372 594.398 237.711 595.681 249.966C596.095 253.925 595.116 257.8 592.487 260.843C587.217 266.942 578.411 267.631 570.938 268.168C580.09 281.315 586.797 296.864 584.264 313.23C582.975 321.557 579.138 328.913 572.132 333.864C561.076 341.678 548.884 340.54 536.287 338.336C534.222 346.702 533.607 355.747 532.186 364.286C528.665 385.446 525.22 406.837 520.573 427.769C518.698 436.216 517.105 445.214 513.369 453.078C509.615 460.98 502.517 469.375 495.711 474.784C500.378 475.847 505.136 476.726 509.754 477.971C516.919 479.901 524.6 482.997 530.817 487.078C561.752 507.381 591.436 544.375 613.834 573.965C618.946 580.718 624.85 587.643 629.099 594.948C638.037 594.257 647.093 594.528 656.057 594.366L703.012 593.399L835.615 590.989C863.72 590.331 891.829 589.859 919.94 589.574L937.459 589.471C940.894 589.422 944.703 588.963 948.099 589.425C950.626 589.769 952.036 590.664 953.519 592.692C954.217 600.573 941.361 642.073 938.3 653.261C924.391 703.999 910.185 754.655 895.681 805.226L969.881 803.418C977.775 803.297 985.782 802.337 993.666 802.626C994.875 802.67 996.621 802.918 997.599 803.699C998.774 804.638 998.842 805.107 999.165 806.496C998.905 807.572 998.757 808.173 998.034 809.056C996.944 810.389 994.883 811.104 993.241 811.349C987.211 812.249 977.342 811.542 970.812 811.796C944.907 812.819 918.989 813.478 893.066 813.77C888.521 829.637 883.859 845.47 879.082 861.269C876.649 869.097 873.148 877.124 871.49 885.113C870.66 889.109 871.505 893.46 870.972 897.536C870.626 900.189 869.647 902.142 867.536 903.777C859.152 904.716 850.61 904.615 842.176 904.872L792.251 906.104L642.918 909.477C609.57 910.138 576.11 910.633 542.784 911.844L498.813 913.067C488.435 913.369 477.66 914.108 467.315 913.476C458.073 912.911 448.512 910.578 439.376 908.942C427.067 906.738 414.343 904.983 402.272 901.728C390.635 899.808 289.513 882.144 286.45 880.163C284.894 879.157 284.254 877.23 283.971 875.481C283.36 871.701 282.773 857.096 285.187 854.503C286.373 853.23 288.641 852.909 290.268 852.632C298.448 851.239 306.966 850.784 315.25 850.212C330.826 849.139 346.422 848.373 362.029 847.914L459.265 844.052C460.605 838.455 461.702 832.846 462.721 827.183C352.082 831.193 241.424 834.638 130.751 837.518L58.9919 839.506C50.0022 839.761 40.9718 840.367 31.9822 840.392C30.2635 840.397 27.5195 840.493 26.0122 839.628C24.8816 838.979 24.1687 837.988 23.9508 836.686C23.7381 835.416 24.1091 834.631 24.8238 833.636C26.7025 832.424 28.3725 832.056 30.584 831.788C39.3712 830.722 48.8927 831.405 57.8168 831.06C79.6439 830.314 101.475 829.68 123.308 829.157C138.609 828.909 154.113 829.235 169.363 828.01C168.467 817.273 166.143 806.561 164.752 795.863C160.545 763.52 157.054 729.897 159.88 697.312C161.605 677.421 167.548 656.725 183.413 643.458C196.756 632.3 215.989 625.881 233.323 626.089C237.287 626.137 240.898 627.401 244.675 627.576C245.895 627.632 246.033 627.484 246.903 626.723C247.012 625.761 247.137 624.863 246.483 624.048C243.015 619.717 232.027 611.005 227.247 606.473C203.471 583.884 180.096 560.877 157.132 537.463C152.004 532.165 144.421 526.152 141.082 519.634C141.328 514.252 151.293 508.491 155.058 504.748L155.658 504.145C152.1 500.371 148.934 496.15 145.568 492.196C139.862 485.494 133.981 478.892 128.483 472.02C108.312 446.81 79.9811 408.716 83.8757 375.103C87.9709 339.759 138.09 298.778 165.828 279.514C187.778 264.271 211.357 250.796 234.99 238.375C246.482 232.421 258.067 226.65 269.744 221.067C274.845 218.591 281.338 216.226 285.949 213.074C289.38 210.728 291.764 206.179 294.484 203.043C297.368 199.719 300.749 196.69 304.214 193.986C319.446 182.098 336.455 173.196 356.193 175.638C371.981 168.319 384.455 166.429 401.709 166.505ZM388.367 175.198C357.855 178.483 328.41 199.827 301.591 213.926C283.778 223.29 265.523 231.753 247.61 240.918C212.326 258.97 177.858 279.117 147.15 304.279C133.603 315.379 120.564 327.252 109.562 340.934C97.8833 355.456 90.0469 369.277 92.097 388.404C95.4362 419.558 129.096 460.426 149.128 483.929C153.24 488.754 157.91 493.173 161.849 498.129C170.356 491.744 178.351 484.471 186.456 477.579C204.546 462.196 223.002 446.418 242.862 433.369C224.95 417.313 209.049 399.407 192.9 381.639C188.35 384.114 176.395 391.868 171.253 390.893C169.832 390.624 169.518 390.116 168.723 389.042C168.48 387.469 168.538 386.705 169.011 385.185C173.81 380.989 184.819 377.457 191.015 373.427C215.309 358.288 235.806 338.503 256.381 318.799C271.761 303.864 287.407 289.205 303.31 274.829C310.126 268.729 316.758 261.816 324.07 256.349C347.245 263.514 377.679 247.64 399.411 240.265C404.271 238.616 409.421 237.525 414.403 236.289C422.127 240.091 447.163 253.558 455.02 250.305C456.275 249.786 457.209 249.071 457.728 247.776C458.245 246.487 458.039 245.287 457.372 244.113C453.412 237.14 424.823 223.392 416.787 221.536C412.738 220.601 392.085 220.299 390.564 217.95C389.835 216.824 389.812 215.624 390.159 214.357C390.376 213.56 390.83 213.102 391.559 212.689C397.609 209.261 421.996 213.92 428.764 216.733C435.281 219.441 448.174 228.743 454.795 226.129C455.846 225.714 456.834 224.986 457.374 223.971C458.014 222.765 457.875 221.556 457.375 220.339C454.984 214.523 438.112 210.609 432.075 208.77C419.933 205.07 410.057 203.859 397.247 204.666C392.848 204.943 387.993 205.974 383.628 205.609C382.142 205.485 380.882 204.896 380.196 203.483C379.576 202.204 379.798 201.562 380.167 200.305C383.595 196.529 395.123 196.026 400.206 195.78C412.963 195.164 424.91 197.233 437.005 201.161C440.154 202.183 447.914 205.824 450.832 204.796C451.444 203.712 451.954 202.844 451.584 201.559C450.863 199.055 447.678 197.543 445.474 196.64C433.68 191.81 415.748 188.902 403.001 189.667C396.011 190.087 389.204 191.449 382.268 192.243C380.048 192.498 377.173 192.778 375.953 190.389C375.437 189.38 375.344 188.259 375.902 187.251C378.023 183.416 388.718 182.668 392.874 182.145C402.553 180.926 412.955 180.75 422.588 182.482L423.36 182.146C423.475 181.345 423.74 180.892 423.272 180.162C421.235 176.985 412.658 176.2 409.177 175.696C402.753 174.767 394.801 174.185 388.367 175.198ZM400.621 278.043C389.016 296.101 380.105 314.82 373.146 335.11C370.797 341.958 369.891 349.778 367.027 356.333C365.878 358.962 364.36 360.013 361.568 360.573C358.959 361.096 355.032 361.04 352.814 359.333C350.876 357.843 349.642 355.351 347.977 353.565C344.566 349.905 337.698 348.245 332.869 348.626C327.365 349.097 322.276 351.745 318.73 355.982C314.407 361.062 312.375 369.036 312.927 375.613C313.403 381.29 316.112 386.034 320.506 389.62C322.836 391.543 325.549 392.948 328.464 393.742C331.359 394.515 342.348 394.305 343.732 396.599C345.966 400.306 347.173 414.383 348.38 419.603C350.906 430.535 354.177 442.386 360.444 451.786C369.81 465.836 391.448 475.833 407.337 479.509C414.43 481.151 421.643 481.751 428.878 482.374C451.409 483.025 477.943 480.314 495.16 464.142C499.949 459.644 504.029 453.95 506.54 447.866C511.686 435.401 513.607 420.471 516.181 407.254C520.754 383.77 525.747 359.562 527.848 335.738C507.96 327.946 497.003 319.151 482.84 303.615C452.729 302.994 424.723 297.292 400.621 278.043ZM290.94 297.946C268.624 317.529 247.815 338.799 225.384 358.285C217.396 365.223 208.362 370.697 200.303 377.443C214.66 395.803 232.21 412.283 249.337 427.994C252.391 426.31 259.656 420.865 263.018 421.79C268.851 423.394 285.462 435.155 291.281 439.03C302.566 446.258 319.382 455.435 328.068 465.384C338.537 463.275 348.202 463.076 358.835 463.441C343.986 442.985 341.169 426.571 336.37 402.432C329.101 403.413 322.585 402.209 316.581 397.709C309.995 392.773 306.118 384.844 305.166 376.768C304.863 374.197 304.686 371.601 304.496 369.02C290.414 351.133 286.828 332.006 289.586 309.515C289.879 307.126 291.875 300.114 291.177 298.182L290.94 297.946ZM260.661 430.365C251.933 437.418 242.616 443.621 233.704 450.413C211.166 467.67 189.291 485.778 168.128 504.696C162.532 509.712 156.356 514.493 151.061 519.794C161.063 529.614 170.601 539.884 180.552 549.749C202.886 571.887 225.77 593.772 248.802 615.183C250.727 602.815 253.434 590.57 255.625 578.245C257.724 566.438 259.253 553.985 262.537 542.472C262.915 541.146 263.353 539.458 264.517 538.6C265.688 537.738 266.609 537.666 267.998 537.801C269.256 538.451 269.793 538.948 270.329 540.292C271.643 543.583 256.293 623.374 254.622 634.013C250.647 659.969 247.331 686.022 244.678 712.147C243.166 725.916 240.8 742.416 240.383 756.124C238.143 779.259 235.949 802.725 237.796 825.993C265.678 825.159 293.553 824.131 321.421 822.911C322.38 796.754 323.751 770.615 325.534 744.502C326.69 724.078 328.148 703.673 329.908 683.292C330.704 673.384 331.269 663.404 332.375 653.527C336.365 619.541 342.216 585.799 349.901 552.453C354.386 533.401 358.74 514.703 367.423 497.027C369.997 491.785 373.177 484.336 377.521 480.487C378.354 479.749 379.275 479.106 380.19 478.475C368.51 471.835 354.513 470.261 341.272 471.253C337.886 471.506 327.395 474.168 324.998 473.036C321.599 471.432 317.952 466.831 314.747 464.519C304.49 457.122 271.048 433.676 260.661 430.365ZM484.142 481.546C473.725 484.76 463.783 487.771 453.041 489.782C472.485 520.042 476.006 564.034 479.776 599.091C483.484 633.583 485.311 668.237 488.87 702.729C493.276 678.359 498.255 654.096 503.804 629.961C505.494 622.554 506.219 614.32 509.109 607.275C510.412 604.099 512.875 601.681 515.64 599.73C516.251 599.301 516.869 598.882 517.494 598.472C522.268 596.696 526.566 597.097 531.557 597.218C531.067 593.293 530.651 589.313 529.894 585.429C529.188 581.81 527.697 577.78 527.598 574.117C527.572 573.156 527.727 572.156 528.329 571.373C529.041 570.447 530.238 569.749 531.413 569.678C532.718 569.598 533.776 570.346 534.574 571.304C537.958 575.364 540.132 591.248 540.772 596.927C566.538 595.939 592.396 596.179 618.135 594.998C612.125 585.515 604.741 576.855 597.775 568.064C578.912 544.261 555.29 514.373 530.158 497.256C521.033 490.957 510.767 486.497 499.935 484.125C494.741 482.968 489.243 482.855 484.142 481.546ZM390.054 483.346C390.019 483.56 389.982 483.773 389.949 483.987C389.027 490.042 391.438 502.269 386.798 506.556C385.526 506.866 384.935 506.91 383.774 506.204C382.133 505.207 381.227 503.756 380.891 501.897C380.342 498.868 380.679 495.667 380.403 492.596C377.193 498.459 373.916 504.293 370.96 510.289C374.278 513.025 378.006 515.095 381.709 517.257C394.756 524.872 408.38 530.2 423.777 528.745C427.421 528.385 431.032 527.743 434.577 526.827C442.471 524.542 449.305 520.794 456.332 516.6C454.963 510.26 451.033 502.742 447.61 497.207C447.182 501.406 447.116 506.126 444.112 509.395C442.858 509.82 442.543 510.003 441.274 509.375C440.129 508.808 439.045 507.326 438.799 506.103C437.961 501.921 439.651 495.193 440.07 490.908C422.527 491.177 406.872 488.084 390.054 483.346ZM367.352 519.528C359.082 544.353 354.346 570.249 349.988 596.001C346.545 616.348 343.1 636.66 340.783 657.179C336.782 692.614 335.092 728.641 333.372 764.248C332.436 783.624 330.486 803.077 330.364 822.472C343.698 822.655 357.076 821.796 370.403 821.363C398.394 820.184 426.398 819.347 454.409 818.854C457.813 818.693 461.221 818.491 464.628 818.435C467.746 804.006 470.258 789.457 473.455 775.043C475.46 766.021 477.393 756.983 479.251 747.929C480.499 741.922 482.094 735.772 482.465 729.643C483.146 718.4 480.062 702.829 479.081 691.1C476.799 663.828 469.107 545.298 458.628 525.37C441.192 535.508 421.809 540.856 401.784 535.455C389.751 532.209 378.267 525.433 367.352 519.528ZM935.28 597.722C910.375 598.749 885.336 598.598 860.409 598.888L757.447 600.563L529.033 606.083C523.697 630.358 518.6 654.686 513.745 679.061C512.127 686.863 510.15 694.589 508.561 702.394C503.893 725.317 499.667 748.336 494.804 771.221C489.607 796.005 484.602 820.829 479.789 845.69C477.055 859.35 473.087 873.668 471.834 887.481C474.515 887.385 477.204 887.336 479.875 887.084C506.485 885.725 533.139 885.517 559.769 884.762L762.233 879.546L829.415 877.87C841.003 877.56 853.074 877.775 864.578 876.527C872.595 854.603 878.717 832.144 885.157 809.725L913.31 709.949L933.446 638.061C937.152 624.691 941.632 611.132 944.024 597.477C941.12 597.555 938.176 597.533 935.28 597.722ZM518.546 606.762C517.455 608.335 516.909 609.738 516.436 611.583C509.309 639.411 504.135 667.962 498.415 696.118L472.376 824.242C470.535 833.469 459.748 881.769 460.592 886.55C460.628 886.755 460.702 886.95 460.756 887.151L461.714 887.681C462.91 885.203 463.433 882.626 464.001 879.949L505.168 676.017L515.699 626.696C516.823 621.439 519.763 612.183 519.542 607.206L518.546 606.762ZM230.832 636.232C228.785 636.381 226.465 636.413 224.504 637.036C215.897 639.769 204.535 649.837 198.726 656.645C193.761 662.463 189.924 670.731 188.039 678.096L188.588 678.166L189.335 677.334C203.196 663.078 218.197 650.225 232.7 636.665L232.603 636.119L230.832 636.232ZM241.399 635.896C232.765 645.314 222.632 653.039 213.215 661.626C203.54 670.448 194.599 679.97 185.389 689.259C184.695 693.529 183.606 698.837 184.298 703.107C185.427 702.47 186.211 701.794 187.148 700.918C195.747 693.334 204.461 685.88 213.286 678.56C223.5 670.054 235.815 661.542 243.4 650.543L243.456 649.903C243.828 645.944 245.913 640.64 244.428 636.914C243.381 636.207 242.641 636.068 241.399 635.896ZM198.831 642.967C182.603 652.55 175.525 663.477 170.769 681.71C167.758 693.252 167.525 706.106 167.486 717.994C167.383 749.163 170.826 779.604 175.629 810.355C176.249 814.32 176.376 824.14 178.162 827.052C178.271 827.229 178.411 827.389 178.564 827.532L186.838 827.506C183.859 814.961 182.569 801.761 181.065 788.96C178.194 764.518 176.215 740.47 176.013 715.835C175.929 705.564 175.745 694.883 177.447 684.72C179.091 675.289 182.484 666.249 187.451 658.066C189.25 655.161 199.085 643.33 199.09 643.153L198.831 642.967ZM240.773 661.962C232.519 670.171 223.297 677.314 214.335 684.722C208.677 689.4 203.23 694.33 197.709 699.168C193.07 703.234 188.14 707.241 183.946 711.767C183.97 716.594 183.463 722.812 184.792 727.4C201.678 711.03 220.813 697.332 238.776 682.205C240.329 675.733 240.831 669.232 241.205 662.607L240.773 661.962ZM237.961 689.939C229.671 697.019 220.941 703.569 212.545 710.52C203.19 718.264 194.205 726.465 184.998 734.383C185.08 740.095 184.929 746.15 185.931 751.778C189.697 748.415 192.935 744.411 196.434 740.77C200.236 736.814 204.345 733.071 208.459 729.444C217.403 721.559 227.724 714.996 236.256 706.727C236.947 701.729 238.672 694.874 237.961 689.939ZM234.9 715.02C224.73 723.406 214.288 731.699 204.648 740.689C198.347 746.565 192.648 753.029 186.395 758.925C187.633 764.645 187.198 770.581 188.344 776.328C190.994 775.917 195.402 769.325 197.536 767.166C208.725 755.844 220.701 744.12 233.318 734.41C233.584 731.931 235.72 716.058 234.9 715.02ZM231.928 742.94C223.396 750.291 214.692 757.739 206.688 765.661C202.173 770.129 197.998 775.724 193.163 779.725C191.991 780.695 190.391 781.136 188.967 781.605C189.543 787.909 190.125 794.143 191.213 800.384L191.755 800.939C192.564 800.288 192.906 799.668 193.436 798.797C202.846 783.346 219.745 773.115 231.183 759.353C231.641 754.174 232.533 748.078 231.928 742.94ZM230.226 767.959C221.574 776.149 213.208 784.635 205.143 793.402C200.907 797.982 197.033 803.221 192.245 807.221C192.649 811.867 193.407 816.351 194.459 820.892L194.857 821.803C197.162 821.086 202.027 815.279 204.241 813.291C212.063 806.27 220.386 799.774 228.421 792.996C229.098 785.196 230.729 775.677 230.226 767.959ZM228.008 801.522C223.608 804.819 200.418 822.241 198.802 826.711L199.165 827.023C203.995 826.755 208.855 826.45 213.695 826.479C218.515 821.443 223.533 816.601 228.738 811.963C228.725 809.698 229.264 803.011 228.008 801.522ZM228.315 819.956C226.21 821.866 224.048 823.68 222.354 825.978L222.718 826.463L229.003 826.397C229.007 824.8 229.43 821.135 228.315 819.956ZM450.321 853.295C420.792 854.683 391.214 855.366 361.672 856.511C343.298 857.223 324.756 858.727 306.379 858.805C316.297 861.556 326.794 862.901 336.942 864.638L401.604 876.765C418.339 879.799 435.094 882.438 451.733 886.001C453.445 874.97 456.708 863.892 457.821 852.825L450.321 853.295ZM292.805 864.912C292.583 867.46 291.999 870.415 293.512 872.653C298.272 874.488 304.491 875.025 309.554 875.965L345.78 882.509L422.97 896.705C436.237 899.133 450.141 902.591 463.543 903.696L463.735 897.42C455.879 895.385 447.798 894.097 439.823 892.608L400.259 885.306L292.805 864.912ZM850.737 885.769C768.231 887.536 685.735 889.723 603.252 892.332L525.751 894.24C509.321 894.55 489.098 894.126 473.153 896.014C472.292 899.058 471.85 901.952 471.513 905.092L483.1 904.929C511.32 903.46 539.756 903.683 568.017 902.885C624.272 901.164 680.536 899.726 736.805 898.571L808.556 897.124C826.224 896.826 843.926 896.975 861.576 895.99C861.809 892.476 862.06 888.964 862.328 885.453L850.737 885.769Z"/><path fill="#FEFEFE" d="M161.849 498.129C157.91 493.173 153.24 488.754 149.128 483.929C129.096 460.426 95.4362 419.558 92.097 388.404C90.0469 369.277 97.8833 355.456 109.562 340.934C120.564 327.252 133.603 315.379 147.15 304.279C177.858 279.117 212.326 258.97 247.61 240.918C265.523 231.753 283.778 223.29 301.591 213.926C328.41 199.827 357.855 178.483 388.367 175.198C394.801 174.185 402.753 174.767 409.177 175.696C412.658 176.2 421.235 176.985 423.272 180.162C423.74 180.892 423.475 181.345 423.36 182.146L422.588 182.482C412.955 180.75 402.553 180.926 392.874 182.145C388.718 182.668 378.023 183.416 375.902 187.251C375.344 188.259 375.437 189.38 375.953 190.389C377.173 192.778 380.048 192.498 382.268 192.243C389.204 191.449 396.011 190.087 403.001 189.667C415.748 188.902 433.68 191.81 445.474 196.64C447.678 197.543 450.863 199.055 451.584 201.559C451.954 202.844 451.444 203.712 450.832 204.796C447.914 205.824 440.154 202.183 437.005 201.161C424.91 197.233 412.963 195.164 400.206 195.78C395.123 196.026 383.595 196.529 380.167 200.305C379.798 201.562 379.576 202.204 380.196 203.483C380.882 204.896 382.142 205.485 383.628 205.609C387.993 205.974 392.848 204.943 397.247 204.666C410.057 203.859 419.933 205.07 432.075 208.77C438.112 210.609 454.984 214.523 457.375 220.339C457.875 221.556 458.014 222.765 457.374 223.971C456.834 224.986 455.846 225.714 454.795 226.129C448.174 228.743 435.281 219.441 428.764 216.733C421.996 213.92 397.609 209.261 391.559 212.689C390.83 213.102 390.376 213.56 390.159 214.357C389.812 215.624 389.835 216.824 390.564 217.95C392.085 220.299 412.738 220.601 416.787 221.536C424.823 223.392 453.412 237.14 457.372 244.113C458.039 245.287 458.245 246.487 457.728 247.776C457.209 249.071 456.275 249.786 455.02 250.305C447.163 253.558 422.127 240.091 414.403 236.289C409.421 237.525 404.271 238.616 399.411 240.265C377.679 247.64 347.245 263.514 324.07 256.349C316.758 261.816 310.126 268.729 303.31 274.829C287.407 289.205 271.761 303.864 256.381 318.799C235.806 338.503 215.309 358.288 191.015 373.427C184.819 377.457 173.81 380.989 169.011 385.185C168.538 386.705 168.48 387.469 168.723 389.042C169.518 390.116 169.832 390.624 171.253 390.893C176.395 391.868 188.35 384.114 192.9 381.639C209.049 399.407 224.95 417.313 242.862 433.369C223.002 446.418 204.546 462.196 186.456 477.579C178.351 484.471 170.356 491.744 161.849 498.129Z"/><path fill="#010101" d="M125.485 280.678C124.002 280.744 123.894 280.595 122.634 279.773C122.146 278.541 121.951 278.248 122.452 276.936C123.831 273.323 130.514 268.772 133.553 266.313C159.516 245.304 188.277 230.113 219.496 218.499C220.515 218.444 221.472 218.493 222.491 218.54C223.47 219.286 223.55 219.31 223.881 220.486C222.361 224.811 208.169 228.737 203.635 230.544C175.093 241.916 148.223 260.185 125.485 280.678Z"/><path fill="#010101" d="M133.781 252.759C132.485 253.042 132.184 253.223 130.972 252.742C130.353 251.776 129.878 251.338 130.299 250.128C132.383 244.136 166.66 225.442 173.962 221.465C175.325 221.365 176.364 221.298 177.538 222.109C178.339 222.663 178.205 222.898 178.415 223.77C178.053 224.75 177.763 225.298 176.866 225.881C172.289 228.855 167.238 231.188 162.531 233.963C152.658 239.773 143.064 246.046 133.781 252.759Z"/><path fill="#FEFEFE" d="M428.878 482.374C421.643 481.751 414.43 481.151 407.337 479.509C391.448 475.833 369.81 465.836 360.444 451.786C354.177 442.386 350.906 430.535 348.38 419.603C347.173 414.383 345.966 400.306 343.732 396.599C342.348 394.305 331.359 394.515 328.464 393.742C325.549 392.948 322.836 391.543 320.506 389.62C316.112 386.034 313.403 381.29 312.927 375.613C312.375 369.036 314.407 361.062 318.73 355.982C322.276 351.745 327.365 349.097 332.869 348.626C337.698 348.245 344.566 349.905 347.977 353.565C349.642 355.351 350.876 357.843 352.814 359.333C355.032 361.04 358.959 361.096 361.568 360.573C364.36 360.013 365.878 358.962 367.027 356.333C369.891 349.778 370.797 341.958 373.146 335.11C380.105 314.82 389.016 296.101 400.621 278.043C424.723 297.292 452.729 302.994 482.84 303.615C497.003 319.151 507.96 327.946 527.848 335.738C525.747 359.562 520.754 383.77 516.181 407.254C513.607 420.471 511.686 435.401 506.54 447.866C504.029 453.95 499.949 459.644 495.16 464.142C477.943 480.314 451.409 483.025 428.878 482.374ZM419.978 322.537C415.002 324.316 410.024 326.157 404.949 327.638C400.702 328.877 391.402 329.902 388.128 331.943C387.785 333.132 387.637 333.788 388.308 334.972C388.908 336.029 390.051 336.161 391.142 336.316C391.299 336.338 391.46 336.321 391.619 336.323C398.604 335.362 418.345 332.9 422.785 327.648C423.46 326.85 423.62 326.301 423.817 325.305C423.422 323.802 423.469 323.686 422.243 322.761L419.978 322.537ZM493.309 329.223C492.548 330.526 491.979 331.08 492.279 332.69C493.079 336.983 503.068 345.596 507.065 347.238C508.021 347.631 509.076 347.583 510.09 347.559C510.847 346.217 511.465 345.266 511.433 343.665C510.549 341.295 497.814 330.794 495.176 329.676C494.557 329.414 493.969 329.323 493.309 329.223ZM458.968 339.958C454.972 345.427 454.441 356.456 455.463 362.992C457.166 373.88 464.645 382.305 468.029 392.493C468.33 393.397 468.642 394.296 468.932 395.203C467.88 396.889 466.686 399.301 465.14 400.554C461.005 403.905 448.95 403.113 447.811 408.706C448.485 410.501 449.285 411.582 451.058 412.418C451.791 412.765 452.534 412.996 453.323 413.179C460.905 412.384 467.932 410.4 472.998 404.215C475.709 400.905 477.156 396.966 476.613 392.667C475.234 381.743 465.395 373.361 463.804 362.278C462.814 355.378 465.664 347.522 465.082 342.985C464.932 341.814 464.355 341.241 463.386 340.629C462.107 339.822 460.402 339.895 458.968 339.958ZM407.12 356.402C401.125 357.793 397.396 363.783 398.794 369.775C400.193 375.768 406.188 379.489 412.179 378.083C418.158 376.679 421.87 370.698 420.475 364.717C419.079 358.735 413.103 355.015 407.12 356.402ZM493.498 358.591C489.728 359.444 486.858 360.665 484.641 363.998C482.967 366.512 482.362 369.556 483.107 372.5C483.857 375.462 485.926 377.852 488.551 379.35C490.142 380.259 491.732 380.657 493.525 380.953C497.226 380.305 499.972 379.399 502.148 376.148C504.082 373.258 504.555 369.636 503.766 366.279C503.153 363.674 501.607 361.264 499.261 359.907C497.42 358.842 495.589 358.556 493.498 358.591ZM330.061 362.519C327.544 363.637 325.11 364.664 324.008 367.384C323.271 369.202 323.456 371.23 324.255 372.994C325.707 376.206 329.219 378.892 332.528 379.951C333.828 380.367 334.779 380.318 336.106 380.086C337.471 378.867 338.009 377.386 338.738 375.738C336.507 373.003 332.386 371.426 329.436 369.45C332.646 369.517 336.925 370.262 339.931 369.342C340.926 368.375 340.883 368.437 340.926 367.047C339.897 364.986 338.339 363.708 336.152 362.942C334.212 362.262 332.079 362.417 330.061 362.519ZM412.133 421.891C407.199 426.254 404.707 431.334 404.231 437.919C403.964 441.614 404.222 445.578 406.709 448.529C408.218 450.319 409.675 450.496 411.873 450.646C412.991 449.346 413.868 448.297 413.66 446.449C413.223 442.575 411.224 438.986 412.07 435.008C412.732 431.896 418.14 426.721 416.658 423.702C416.525 423.431 415.631 422.706 415.465 422.594C414.602 422.011 413.139 421.907 412.133 421.891ZM420.729 434.171C420.3 435.744 419.792 437.141 420.102 438.785C423.725 443.296 434.58 444.769 440.033 445.386C445.413 445.995 450.843 446.147 456.18 445.128C456.756 443.718 457.032 442.824 456.92 441.254C456.164 440.004 455.772 439.409 454.222 439.077C449.641 438.097 444.602 439.106 439.93 438.452C433.533 437.556 427.115 434.573 420.729 434.171Z"/><path fill="#FEFEFE" d="M200.303 377.443C208.362 370.697 217.396 365.223 225.384 358.285C247.815 338.799 268.624 317.529 290.94 297.946L291.177 298.182C291.875 300.114 289.879 307.126 289.586 309.515C286.828 332.006 290.414 351.133 304.496 369.02C304.686 371.601 304.863 374.197 305.166 376.768C306.118 384.844 309.995 392.773 316.581 397.709C322.585 402.209 329.101 403.413 336.37 402.432C341.169 426.571 343.986 442.985 358.835 463.441C348.202 463.076 338.537 463.275 328.068 465.384C319.382 455.435 302.566 446.258 291.281 439.03C285.462 435.155 268.851 423.394 263.018 421.79C259.656 420.865 252.391 426.31 249.337 427.994C232.21 412.283 214.66 395.803 200.303 377.443Z"/><path fill="#010101" d="M391.619 336.323C391.46 336.321 391.299 336.338 391.142 336.316C390.051 336.161 388.908 336.029 388.308 334.972C387.637 333.788 387.785 333.132 388.128 331.943C391.402 329.902 400.702 328.877 404.949 327.638C410.024 326.157 415.002 324.316 419.978 322.537L422.243 322.761C423.469 323.686 423.422 323.802 423.817 325.305C423.62 326.301 423.46 326.85 422.785 327.648C418.345 332.9 398.604 335.362 391.619 336.323Z"/><path fill="#010101" d="M510.09 347.559C509.076 347.583 508.021 347.631 507.065 347.238C503.068 345.596 493.079 336.983 492.279 332.69C491.979 331.08 492.548 330.526 493.309 329.223C493.969 329.323 494.557 329.414 495.176 329.676C497.814 330.794 510.549 341.295 511.433 343.665C511.465 345.266 510.847 346.217 510.09 347.559Z"/><path fill="#010101" d="M468.932 395.203C468.642 394.296 468.33 393.397 468.029 392.493C464.645 382.305 457.166 373.88 455.463 362.992C454.441 356.456 454.972 345.427 458.968 339.958C460.402 339.895 462.107 339.822 463.386 340.629C464.355 341.241 464.932 341.814 465.082 342.985C465.664 347.522 462.814 355.378 463.804 362.278C465.395 373.361 475.234 381.743 476.613 392.667C477.156 396.966 475.709 400.905 472.998 404.215C467.932 410.4 460.905 412.384 453.323 413.179C452.534 412.996 451.791 412.765 451.058 412.418C449.285 411.582 448.485 410.501 447.811 408.706C448.95 403.113 461.005 403.905 465.14 400.554C466.686 399.301 467.88 396.889 468.932 395.203Z"/><path fill="#010101" d="M412.179 378.083C406.188 379.489 400.193 375.768 398.794 369.775C397.396 363.783 401.125 357.793 407.12 356.402C413.103 355.015 419.079 358.735 420.475 364.717C421.87 370.698 418.158 376.679 412.179 378.083Z"/><path fill="#010101" d="M493.525 380.953C491.732 380.657 490.142 380.259 488.551 379.35C485.926 377.852 483.857 375.462 483.107 372.5C482.362 369.556 482.967 366.512 484.641 363.998C486.858 360.665 489.728 359.444 493.498 358.591C495.589 358.556 497.42 358.842 499.261 359.907C501.607 361.264 503.153 363.674 503.766 366.279C504.555 369.636 504.082 373.258 502.148 376.148C499.972 379.399 497.226 380.305 493.525 380.953Z"/><path fill="#010101" d="M338.738 375.738C338.009 377.386 337.471 378.867 336.106 380.086C334.779 380.318 333.828 380.367 332.528 379.951C329.219 378.892 325.707 376.206 324.255 372.994C323.456 371.23 323.271 369.202 324.008 367.384C325.11 364.664 327.544 363.637 330.061 362.519C332.079 362.417 334.212 362.262 336.152 362.942C338.339 363.708 339.897 364.986 340.926 367.047C340.883 368.437 340.926 368.375 339.931 369.342C336.925 370.262 332.646 369.517 329.436 369.45C332.386 371.426 336.507 373.003 338.738 375.738Z"/><path fill="#010101" d="M411.873 450.646C409.675 450.496 408.218 450.319 406.709 448.529C404.222 445.578 403.964 441.614 404.231 437.919C404.707 431.334 407.199 426.254 412.133 421.891C413.139 421.907 414.602 422.011 415.465 422.594C415.631 422.706 416.525 423.431 416.658 423.702C418.14 426.721 412.732 431.896 412.07 435.008C411.224 438.986 413.223 442.575 413.66 446.449C413.868 448.297 412.991 449.346 411.873 450.646Z"/><path fill="#FEFEFE" d="M151.061 519.794C156.356 514.493 162.532 509.712 168.128 504.696C189.291 485.778 211.166 467.67 233.704 450.413C242.616 443.621 251.933 437.418 260.661 430.365C271.048 433.676 304.49 457.122 314.747 464.519C317.952 466.831 321.599 471.432 324.998 473.036C327.395 474.168 337.886 471.506 341.272 471.253C354.513 470.261 368.51 471.835 380.19 478.475C379.275 479.106 378.354 479.749 377.521 480.487C373.177 484.336 369.997 491.785 367.423 497.027C358.74 514.703 354.386 533.401 349.901 552.453C342.216 585.799 336.365 619.541 332.375 653.527C331.269 663.404 330.704 673.384 329.908 683.292C328.148 703.673 326.69 724.078 325.534 744.502C323.751 770.615 322.38 796.754 321.421 822.911C293.553 824.131 265.678 825.159 237.796 825.993C235.949 802.725 238.143 779.259 240.383 756.124C240.8 742.416 243.166 725.916 244.678 712.147C247.331 686.022 250.647 659.969 254.622 634.013C256.293 623.374 271.643 543.583 270.329 540.292C269.793 538.948 269.256 538.451 267.998 537.801C266.609 537.666 265.688 537.738 264.517 538.6C263.353 539.458 262.915 541.146 262.537 542.472C259.253 553.985 257.724 566.438 255.625 578.245C253.434 590.57 250.727 602.815 248.802 615.183C225.77 593.772 202.886 571.887 180.552 549.749C170.601 539.884 161.063 529.614 151.061 519.794Z"/><path fill="#010101" d="M456.18 445.128C450.843 446.147 445.413 445.995 440.033 445.386C434.58 444.769 423.725 443.296 420.102 438.785C419.792 437.141 420.3 435.744 420.729 434.171C427.115 434.573 433.533 437.556 439.93 438.452C444.602 439.106 449.641 438.097 454.222 439.077C455.772 439.409 456.164 440.004 456.92 441.254C457.032 442.824 456.756 443.718 456.18 445.128Z"/><path fill="#FEFEFE" d="M453.041 489.782C463.783 487.771 473.725 484.76 484.142 481.546C489.243 482.855 494.741 482.968 499.935 484.125C510.767 486.497 521.033 490.957 530.158 497.256C555.29 514.373 578.912 544.261 597.775 568.064C604.741 576.855 612.125 585.515 618.135 594.998C592.396 596.179 566.538 595.939 540.772 596.927C540.132 591.248 537.958 575.364 534.574 571.304C533.776 570.346 532.718 569.598 531.413 569.678C530.238 569.749 529.041 570.447 528.329 571.373C527.727 572.156 527.572 573.156 527.598 574.117C527.697 577.78 529.188 581.81 529.894 585.429C530.651 589.313 531.067 593.293 531.557 597.218C526.566 597.097 522.268 596.696 517.494 598.472C516.869 598.882 516.251 599.301 515.64 599.73C512.875 601.681 510.412 604.099 509.109 607.275C506.219 614.32 505.494 622.554 503.804 629.961C498.255 654.096 493.276 678.359 488.87 702.729C485.311 668.237 483.484 633.583 479.776 599.091C476.006 564.034 472.485 520.042 453.041 489.782Z"/><path fill="#FEFEFE" d="M380.403 492.596C380.679 495.667 380.342 498.868 380.891 501.897C381.227 503.756 382.133 505.207 383.774 506.204C384.935 506.91 385.526 506.866 386.798 506.556C391.438 502.269 389.027 490.042 389.949 483.987C389.982 483.773 390.019 483.56 390.054 483.346C406.872 488.084 422.527 491.177 440.07 490.908C439.651 495.193 437.961 501.921 438.799 506.103C439.045 507.326 440.129 508.808 441.274 509.375C442.543 510.003 442.858 509.82 444.112 509.395C447.116 506.126 447.182 501.406 447.61 497.207C451.033 502.742 454.963 510.26 456.332 516.6C449.305 520.794 442.471 524.542 434.577 526.827C431.032 527.743 427.421 528.385 423.777 528.745C408.38 530.2 394.756 524.872 381.709 517.257C378.006 515.095 374.278 513.025 370.96 510.289C373.916 504.293 377.193 498.459 380.403 492.596Z"/><path fill="#FEFEFE" d="M330.364 822.472C330.486 803.077 332.436 783.624 333.372 764.248C335.092 728.641 336.782 692.614 340.783 657.179C343.1 636.66 346.545 616.348 349.988 596.001C354.346 570.249 359.082 544.353 367.352 519.528C378.267 525.433 389.751 532.209 401.784 535.455C421.809 540.856 441.192 535.508 458.628 525.37C469.107 545.298 476.799 663.828 479.081 691.1C480.062 702.829 483.146 718.4 482.465 729.643C482.094 735.772 480.499 741.922 479.251 747.929C477.393 756.983 475.46 766.021 473.455 775.043C470.258 789.457 467.746 804.006 464.628 818.435C461.221 818.491 457.813 818.693 454.409 818.854C426.398 819.347 398.394 820.184 370.403 821.363C357.076 821.796 343.698 822.655 330.364 822.472ZM383.744 719.238C382.805 720.438 382.188 721.123 382.166 722.729C383.08 724.219 383.515 724.437 385.048 725.291C396.687 731.769 410.304 736.844 422.546 742.29C428.921 745.125 435.831 749.285 442.542 750.968C443.282 749.669 443.92 748.724 443.884 747.17C442.276 744.252 391.789 722.707 383.744 719.238ZM411.063 745.228C410.426 746.739 409.951 747.438 410.133 749.09C412.657 751.586 437.018 763.891 440.512 764.028C440.759 764.038 441.005 764.022 441.251 764.02C441.824 762.599 442.118 762.248 441.795 760.711C438.181 756.951 416.45 745.811 411.063 745.228Z"/><path fill="#FEFEFE" d="M529.033 606.083L757.447 600.563L860.409 598.888C885.336 598.598 910.375 598.749 935.28 597.722C938.176 597.533 941.12 597.555 944.024 597.477C941.632 611.132 937.152 624.691 933.446 638.061L913.31 709.949L885.157 809.725C878.717 832.144 872.595 854.603 864.578 876.527C853.074 877.775 841.003 877.56 829.415 877.87L762.233 879.546L559.769 884.762C533.139 885.517 506.485 885.725 479.875 887.084C477.204 887.336 474.515 887.385 471.834 887.481C473.087 873.668 477.055 859.35 479.789 845.69C484.602 820.829 489.607 796.005 494.804 771.221C499.667 748.336 503.893 725.317 508.561 702.394C510.15 694.589 512.127 686.863 513.745 679.061C518.6 654.686 523.697 630.358 529.033 606.083Z"/><path fill="#FEFEFE" d="M461.714 887.681L460.756 887.151C460.702 886.95 460.628 886.755 460.592 886.55C459.748 881.769 470.535 833.469 472.376 824.242L498.415 696.118C504.135 667.962 509.309 639.411 516.436 611.583C516.909 609.738 517.455 608.335 518.546 606.762L519.542 607.206C519.763 612.183 516.823 621.439 515.699 626.696L505.168 676.017L464.001 879.949C463.433 882.626 462.91 885.203 461.714 887.681Z"/><path fill="#FEFEFE" d="M189.335 677.334L188.588 678.166L188.039 678.096C189.924 670.731 193.761 662.463 198.726 656.645C204.535 649.837 215.897 639.769 224.504 637.036C226.465 636.413 228.785 636.381 230.832 636.232L232.603 636.119L232.7 636.665C218.197 650.225 203.196 663.078 189.335 677.334Z"/><path fill="#FEFEFE" d="M185.389 689.259C194.599 679.97 203.54 670.448 213.215 661.626C222.632 653.039 232.765 645.314 241.399 635.896C242.641 636.068 243.381 636.207 244.428 636.914C245.913 640.64 243.828 645.944 243.456 649.903L243.4 650.543C235.815 661.542 223.5 670.054 213.286 678.56C204.461 685.88 195.747 693.334 187.148 700.918C186.211 701.794 185.427 702.47 184.298 703.107C183.606 698.837 184.695 693.529 185.389 689.259Z"/><path fill="#FEFEFE" d="M178.564 827.532C178.411 827.389 178.271 827.229 178.162 827.052C176.376 824.14 176.249 814.32 175.629 810.355C170.826 779.604 167.383 749.163 167.486 717.994C167.525 706.106 167.758 693.252 170.769 681.71C175.525 663.477 182.603 652.55 198.831 642.967L199.09 643.153C199.085 643.33 189.25 655.161 187.451 658.066C182.484 666.249 179.091 675.289 177.447 684.72C175.745 694.883 175.929 705.564 176.013 715.835C176.215 740.47 178.194 764.518 181.065 788.96C182.569 801.761 183.859 814.961 186.838 827.506L178.564 827.532Z"/><path fill="#FEFEFE" d="M183.946 711.767C188.14 707.241 193.07 703.234 197.709 699.168C203.23 694.33 208.677 689.4 214.335 684.722C223.297 677.314 232.519 670.171 240.773 661.962L241.205 662.607C240.831 669.232 240.329 675.733 238.776 682.205C220.813 697.332 201.678 711.03 184.792 727.4C183.463 722.812 183.97 716.594 183.946 711.767Z"/><path fill="#FEFEFE" d="M184.998 734.383C194.205 726.465 203.19 718.264 212.545 710.52C220.941 703.569 229.671 697.019 237.961 689.939C238.672 694.874 236.947 701.729 236.256 706.727C227.724 714.996 217.403 721.559 208.459 729.444C204.345 733.071 200.236 736.814 196.434 740.77C192.935 744.411 189.697 748.415 185.931 751.778C184.929 746.15 185.08 740.095 184.998 734.383Z"/><path fill="#FEFEFE" d="M186.395 758.925C192.648 753.029 198.347 746.565 204.648 740.689C214.288 731.699 224.73 723.406 234.9 715.02C235.72 716.058 233.584 731.931 233.318 734.41C220.701 744.12 208.725 755.844 197.536 767.166C195.402 769.325 190.994 775.917 188.344 776.328C187.198 770.581 187.633 764.645 186.395 758.925Z"/><path fill="#010101" d="M442.542 750.968C435.831 749.285 428.921 745.125 422.546 742.29C410.304 736.844 396.687 731.769 385.048 725.291C383.515 724.437 383.08 724.219 382.166 722.729C382.188 721.123 382.805 720.438 383.744 719.238C391.789 722.707 442.276 744.252 443.884 747.17C443.92 748.724 443.282 749.669 442.542 750.968Z"/><path fill="#FEFEFE" d="M188.967 781.605C190.391 781.136 191.991 780.695 193.163 779.725C197.998 775.724 202.173 770.129 206.688 765.661C214.692 757.739 223.396 750.291 231.928 742.94C232.533 748.078 231.641 754.174 231.183 759.353C219.745 773.115 202.846 783.346 193.436 798.797C192.906 799.668 192.564 800.288 191.755 800.939L191.213 800.384C190.125 794.143 189.543 787.909 188.967 781.605Z"/><path fill="#010101" d="M441.251 764.02C441.005 764.022 440.759 764.038 440.512 764.028C437.018 763.891 412.657 751.586 410.133 749.09C409.951 747.438 410.426 746.739 411.063 745.228C416.45 745.811 438.181 756.951 441.795 760.711C442.118 762.248 441.824 762.599 441.251 764.02Z"/><path fill="#FEFEFE" d="M192.245 807.221C197.033 803.221 200.907 797.982 205.143 793.402C213.208 784.635 221.574 776.149 230.226 767.959C230.729 775.677 229.098 785.196 228.421 792.996C220.386 799.774 212.063 806.27 204.241 813.291C202.027 815.279 197.162 821.086 194.857 821.803L194.459 820.892C193.407 816.351 192.649 811.867 192.245 807.221Z"/><path fill="#FEFEFE" d="M199.165 827.023L198.802 826.711C200.418 822.241 223.608 804.819 228.008 801.522C229.264 803.011 228.725 809.698 228.738 811.963C223.533 816.601 218.515 821.443 213.695 826.479C208.855 826.45 203.995 826.755 199.165 827.023Z"/><path fill="#FEFEFE" d="M222.718 826.463L222.354 825.978C224.048 823.68 226.21 821.866 228.315 819.956C229.43 821.135 229.007 824.8 229.003 826.397L222.718 826.463Z"/><path fill="#FEFEFE" d="M306.379 858.805C324.756 858.727 343.298 857.223 361.672 856.511C391.214 855.366 420.792 854.683 450.321 853.295L457.821 852.825C456.708 863.892 453.445 874.97 451.733 886.001C435.094 882.438 418.339 879.799 401.604 876.765L336.942 864.638C326.794 862.901 316.297 861.556 306.379 858.805Z"/><path fill="#FEFEFE" d="M463.543 903.696C450.141 902.591 436.237 899.133 422.97 896.705L345.78 882.509L309.554 875.965C304.491 875.025 298.272 874.488 293.512 872.653C291.999 870.415 292.583 867.46 292.805 864.912L400.259 885.306L439.823 892.608C447.798 894.097 455.879 895.385 463.735 897.42L463.543 903.696Z"/><path fill="#FEFEFE" d="M473.153 896.014C489.098 894.126 509.321 894.55 525.751 894.24L603.252 892.332C685.735 889.723 768.231 887.536 850.737 885.769L862.328 885.453C862.06 888.964 861.809 892.476 861.576 895.99C843.926 896.975 826.224 896.826 808.556 897.124L736.805 898.571C680.536 899.726 624.272 901.164 568.017 902.885C539.756 903.683 511.32 903.46 483.1 904.929L471.513 905.092C471.85 901.952 472.292 899.058 473.153 896.014Z"/></svg>