<?xml version="1.0" encoding="utf-8" ?><svg xmlns="http://www.w3.org/2000/svg" xmlns:xlink="http://www.w3.org/1999/xlink" width="1024" height="1024" viewBox="0 0 1024 1024"><path fill="#FEFEFE" d="M0 0L1024 0L1024 1024L0 1024L0 0ZM571.314 98.1976C565.721 98.7046 560.394 99.7256 554.97 101.18C532.027 107.331 511.552 120.341 489.102 128.038C480.304 131.054 471.434 133.287 462.332 135.171C454.494 136.793 446.154 137.895 438.694 140.897C433.312 143.062 428.33 146.412 424.57 150.857C418.349 158.211 417.356 168.057 418.253 177.316C419.666 191.908 427.729 206.587 439.109 215.801C442.107 218.228 445.295 220.399 448.489 222.555C448.578 238.155 456.885 251.057 463.832 264.481C468.66 273.81 473.73 283.765 477.012 293.738C480.24 303.55 480.842 314.57 482.056 324.798C485.845 356.718 491.299 391.035 515.208 414.729C521.884 421.346 531.019 427.567 539.921 430.646L519.231 435.116C503.183 438.672 495.37 442.128 486.213 456.227C469.538 481.901 454.251 527.612 444.68 557.492C441.896 566.186 438.694 574.968 436.495 583.823C431.372 565.651 426.67 547.32 421.784 529.08C420.01 522.457 419.138 515.173 416.722 508.782C415.829 506.42 413.955 503.255 411.627 502.035C409.392 500.865 405.224 500.767 402.709 500.611C393.321 500.026 383.868 500.089 374.468 499.684L259.615 495.597L175.964 492.595C157.716 491.669 139.46 490.897 121.199 490.278C119.114 490.223 115.717 489.994 113.826 490.817C112.464 491.409 111.491 492.78 111.188 494.205C109.916 500.191 121.979 541.402 124.528 551.059L163.648 704.836C167.905 722.088 172.291 739.308 176.804 756.494C178.307 762.158 179.201 768.873 181.628 774.185C194.124 777.164 207.463 777.749 220.208 779.296C246.443 782.583 272.697 785.718 298.969 788.7L392.622 799.931C415.626 802.879 438.831 806.77 461.996 807.954L464.825 810.698C472.675 811.347 480.274 811.412 488.081 810.189C505.43 807.472 522.616 802.739 539.753 798.942C580.069 790.011 620.319 781.671 660.127 770.577C663.636 769.6 672.268 768.182 674.872 765.793C676.397 764.394 676.166 762.886 676.162 761.004L676.166 760.079L676.161 759.497C703.965 758.82 731.474 757.157 759.214 755.259C769.504 754.556 779.797 752.705 790.103 752.482C798.653 752.297 807.086 753.174 815.617 753.498C840.595 754.444 865.294 756.039 890.213 757.948C879.5 762.186 868.051 765.341 857.128 769.129L758 802.906L605.85 857.158C598.344 859.768 576.747 868.961 570.04 869.363C560.189 869.954 549.207 867.181 539.387 865.904L475.237 857.662L261.695 831.472L177.722 821.379L150.832 818.065C145.572 817.415 140.069 816.382 134.768 816.396C131.927 816.404 129.574 816.935 127.613 819.088C127.303 820.458 127.238 820.816 127.913 822.141C129.04 824.355 132.542 825.842 134.842 826.198C144.266 827.658 154.14 828.324 163.65 829.415L222.003 836.42L451.876 864.892L526.985 874.504L553.762 877.716C558.334 878.281 563.152 878.619 567.629 879.695C567.684 888.791 567.637 897.888 567.489 906.984C554.819 903.183 534.455 902.09 520.611 900.09L296.873 870.51C255.135 864.549 213.348 858.939 171.516 853.681C161.66 852.484 151.803 850.77 141.931 849.796C140.129 849.618 139.041 849.616 137.436 850.483C136.261 851.79 135.608 852.968 135.81 854.836C135.965 856.26 136.665 857.252 137.782 858.101C139.101 859.104 141.088 859.468 142.675 859.712C147.201 860.407 151.818 860.413 156.349 861.062L235.365 871.739L491.622 906.409L544.092 913.634C553.564 914.998 563.244 915.958 572.506 918.409C584.879 912.908 597.625 908.553 610.277 903.759C624.241 898.468 638.055 892.806 652.072 887.653C662.876 883.682 673.982 880.215 684.502 875.55C684.184 881.663 681.516 923.647 684.89 927.136C685.73 928.005 687.101 928.374 688.275 928.298C689.889 928.194 691.197 927.273 692.084 925.967C694.898 921.823 690.819 914.291 692.945 909.612L694.364 910.975C695.957 910.554 696.468 909.224 697.276 907.846C701.272 901.039 705.491 893.993 708.733 886.797C711.337 887.503 717.23 888.134 719.177 889.581C715.876 896.163 703.764 912.8 703.751 919.241L704.281 920.083C705.813 920.151 706.796 919.776 707.952 918.734C710.258 916.655 721.816 894.099 723.291 890.162C727.624 890.944 731.843 892.09 736.069 893.323C731.85 900.264 722.874 914.11 721.11 921.477L721.447 922.652C722.606 923.275 722.842 923.328 724.158 923.295C727.524 920.228 736.651 902.473 739.042 897.427C738.88 896.19 738.417 895.527 737.766 894.495L737.954 893.64C742.847 894.834 747.748 895.998 752.657 897.13C748.379 903.448 738.08 916.931 737.851 924.379L738.454 925.263C740.559 924.909 741.821 923.472 743.065 921.808C746.785 916.831 754.29 903.715 756.489 898.115C759.945 898.838 763.378 899.548 766.765 900.556C762.858 906.741 754.828 918.633 754.762 925.734L755.305 926.69C756.396 926.755 756.804 926.776 757.757 926.072C761.187 923.537 768.555 906.339 770.624 901.602C774.596 902.525 778.688 903.3 782.563 904.568L782.234 905.217C779.937 909.697 771.289 921.038 771.245 925.122C771.776 926.309 771.595 926.649 772.857 927.149C777.745 924.858 784.201 910.632 787.448 905.742C790.599 906.431 793.598 907.325 796.656 908.348C794.488 911.984 786.435 922.017 787.516 926.084C787.722 926.86 788.192 926.944 788.817 927.353C790.719 926.963 791.505 925.801 792.543 924.226C794.884 920.674 798.084 911.686 800.856 909.425C800.844 910.262 800.782 911.038 800.68 911.871C800.258 915.349 799.526 922.722 801.483 925.795C802.213 926.942 803.011 927.394 804.334 927.599C805.629 927.801 807.028 927.091 807.872 926.182C811.384 922.398 810.282 910.255 810.904 905.045C815.056 901.123 818.4 897.465 820.256 891.888C823.11 883.307 822.677 870.029 823.238 860.678C823.933 849.11 824.782 837.529 825.287 825.951L837.585 821.914C837.271 844.782 835.668 867.748 834.317 890.583C833.796 899.372 832.19 911.538 832.715 920.033C832.769 921.008 833.144 921.938 833.782 922.678C834.626 923.649 835.943 924.144 837.212 924.124C838.571 924.103 839.867 923.531 840.76 922.5C841.46 921.691 841.797 920.791 841.944 919.754C843.442 909.238 843.121 897.864 843.732 887.204C845.053 864.177 846.533 841.251 847.118 818.181C849.908 817.331 852.697 816.422 855.513 815.663C855.246 825.412 854.355 835.149 853.753 844.882L851.389 885.215C850.673 896.352 849.371 907.873 849.908 919.019C850.002 920.974 850.011 923.095 851.421 924.59C852.876 925.219 854.019 925.323 855.499 924.757C856.773 924.27 857.655 923.597 858.111 922.285C860.04 916.741 860.79 886.117 861.248 877.995C862.271 861.646 863.114 845.287 863.777 828.919C863.992 823.407 864.639 817.879 864.543 812.362L873.07 809.384C871.555 833.687 869.877 857.979 868.037 882.259C867.071 894.749 865.151 907.744 865.061 920.246C865.046 922.205 865.07 923.174 866.163 924.829C867.765 925.784 869.196 926.253 871.06 925.659C872.089 925.331 872.638 924.898 873.068 923.912C875.713 917.863 875.605 906.126 876.162 899.451C877.981 877.659 879.212 855.827 880.877 834.026C881.571 824.945 881.662 815.825 882.986 806.802C887.812 804.916 912.318 796.376 914.026 793.011C915.205 790.69 915.166 757.166 914.18 754.554C913.657 753.172 913.093 752.845 911.75 752.373C906.386 750.487 899.581 750.297 893.938 749.585C874.341 747.112 854.533 745.054 834.786 744.316C836.645 741.619 838.48 738.905 840.291 736.175C848.154 735.422 854.726 733.254 859.874 726.833C864.082 721.585 865.379 715.293 864.639 708.71C870.819 703.431 874.392 697.523 875.053 689.328C875.819 679.809 871.988 670.128 865.759 663.007C861.782 658.461 857.206 655.621 851.953 652.778C846.557 616.685 842.074 580.471 832.452 545.187C818.573 494.286 799.52 461.366 756.188 429.296C745.039 421.044 732 413.667 718.749 409.445C711.281 407.065 703.015 405.676 696.045 402.069C691.744 385.799 687.525 374.243 672.723 364.901C671.057 348.434 670.178 329.661 667.428 313.582C678.927 308.512 687.033 298.132 691.537 286.603C695.622 276.15 696.444 264.477 691.726 254.089C688.274 246.49 678.639 244.107 677.651 241.818C676.558 239.287 678.42 227.997 678.712 224.753C681.067 198.596 685.783 147.295 654.651 135.73C646.833 132.825 639.911 134.076 631.844 134.695C628.345 122.059 621.426 111.991 609.868 105.393C597.764 98.4829 584.977 97.1654 571.314 98.1976ZM258.104 392.762C257.591 393.885 257.199 394.803 257.24 396.059C257.447 402.472 262.393 423.516 264.703 429.767C265.117 430.886 265.474 432.113 266.743 432.515C267.161 432.648 268.089 432.688 268.546 432.719C269.02 431.963 269.57 431.177 269.68 430.265C270.271 425.361 266.247 410.457 264.93 404.736C264.121 401.222 263.342 396.334 261.144 393.43C260.073 392.995 259.256 392.839 258.104 392.762ZM367.704 392.817C361.119 402.295 350.215 427.261 352.044 439.065C352.237 440.306 352.592 440.979 353.498 441.88C354.371 442.193 355.19 442.502 356.093 442.713C358.617 439.532 359.156 428.723 360.287 424.187C361.697 418.532 363.294 413.034 365.873 407.79C367.265 404.96 371.59 398.352 371.227 395.205C371.153 394.563 370.675 394.03 370.167 393.665C369.58 393.243 368.42 392.987 367.704 392.817ZM178.674 428.293C177.61 429.594 176.925 430.095 176.72 431.789C179.663 438.209 194.168 458.714 199.732 462.213C200.503 462.313 201.284 462.448 202.059 462.496C203.135 461.164 203.635 460.891 203.699 459.14C201.724 455.013 183.229 429.845 179.985 428.679C179.556 428.525 179.113 428.412 178.674 428.293ZM447.318 434.379C440.104 439.651 421.15 458.407 420.492 467.113C420.417 468.111 420.556 468.593 420.978 469.468C421.928 470.272 422.591 470.62 423.781 470.98C428.168 465.293 431.461 458.83 435.973 453.248C439.237 449.209 449.928 440.974 450.928 436.566C450.491 435.419 450.263 435.079 448.988 434.643C448.541 434.491 447.802 434.431 447.318 434.379Z"/><path fill="#2D2F2E" d="M448.489 222.555C445.295 220.399 442.107 218.228 439.109 215.801C427.729 206.587 419.666 191.908 418.253 177.316C417.356 168.057 418.349 158.211 424.57 150.857C428.33 146.412 433.312 143.062 438.694 140.897C446.154 137.895 454.494 136.793 462.332 135.171C471.434 133.287 480.304 131.054 489.102 128.038C511.552 120.341 532.027 107.331 554.97 101.18C560.394 99.7256 565.721 98.7046 571.314 98.1976C584.977 97.1654 597.764 98.4829 609.868 105.393C621.426 111.991 628.345 122.059 631.844 134.695C639.911 134.076 646.833 132.825 654.651 135.73C685.783 147.295 681.067 198.596 678.712 224.753C678.42 227.997 676.558 239.287 677.651 241.818C678.639 244.107 688.274 246.49 691.726 254.089C696.444 264.477 695.622 276.15 691.537 286.603C687.033 298.132 678.927 308.512 667.428 313.582C670.178 329.661 671.057 348.434 672.723 364.901C687.525 374.243 691.744 385.799 696.045 402.069C703.015 405.676 711.281 407.065 718.749 409.445C732 413.667 745.039 421.044 756.188 429.296C799.52 461.366 818.573 494.286 832.452 545.187C842.074 580.471 846.557 616.685 851.953 652.778C857.206 655.621 861.782 658.461 865.759 663.007C871.988 670.128 875.819 679.809 875.053 689.328C874.392 697.523 870.819 703.431 864.639 708.71C865.379 715.293 864.082 721.585 859.874 726.833C854.726 733.254 848.154 735.422 840.291 736.175C838.48 738.905 836.645 741.619 834.786 744.316C854.533 745.054 874.341 747.112 893.938 749.585C899.581 750.297 906.386 750.487 911.75 752.373C913.093 752.845 913.657 753.172 914.18 754.554C915.166 757.166 915.205 790.69 914.026 793.011C912.318 796.376 887.812 804.916 882.986 806.802C881.662 815.825 881.571 824.945 880.877 834.026C879.212 855.827 877.981 877.659 876.162 899.451C875.605 906.126 875.713 917.863 873.068 923.912C872.638 924.898 872.089 925.331 871.06 925.659C869.196 926.253 867.765 925.784 866.163 924.829C865.07 923.174 865.046 922.205 865.061 920.246C865.151 907.744 867.071 894.749 868.037 882.259C869.877 857.979 871.555 833.687 873.07 809.384L864.543 812.362C864.639 817.879 863.992 823.407 863.777 828.919C863.114 845.287 862.271 861.646 861.248 877.995C860.79 886.117 860.04 916.741 858.111 922.285C857.655 923.597 856.773 924.27 855.499 924.757C854.019 925.323 852.876 925.219 851.421 924.59C850.011 923.095 850.002 920.974 849.908 919.019C849.371 907.873 850.673 896.352 851.389 885.215L853.753 844.882C854.355 835.149 855.246 825.412 855.513 815.663C852.697 816.422 849.908 817.331 847.118 818.181C846.533 841.251 845.053 864.177 843.732 887.204C843.121 897.864 843.442 909.238 841.944 919.754C841.797 920.791 841.46 921.691 840.76 922.5C839.867 923.531 838.571 924.103 837.212 924.124C835.943 924.144 834.626 923.649 833.782 922.678C833.144 921.938 832.769 921.008 832.715 920.033C832.19 911.538 833.796 899.372 834.317 890.583C835.668 867.748 837.271 844.782 837.585 821.914L825.287 825.951C824.782 837.529 823.933 849.11 823.238 860.678C822.677 870.029 823.11 883.307 820.256 891.888C818.4 897.465 815.056 901.123 810.904 905.045C810.282 910.255 811.384 922.398 807.872 926.182C807.028 927.091 805.629 927.801 804.334 927.599C803.011 927.394 802.213 926.942 801.483 925.795C799.526 922.722 800.258 915.349 800.68 911.871C800.782 911.038 800.844 910.262 800.856 909.425C798.084 911.686 794.884 920.674 792.543 924.226C791.505 925.801 790.719 926.963 788.817 927.353C788.192 926.944 787.722 926.86 787.516 926.084C786.435 922.017 794.488 911.984 796.656 908.348C793.598 907.325 790.599 906.431 787.448 905.742C784.201 910.632 777.745 924.858 772.857 927.149C771.595 926.649 771.776 926.309 771.245 925.122C771.289 921.038 779.937 909.697 782.234 905.217L782.563 904.568C778.688 903.3 774.596 902.525 770.624 901.602C768.555 906.339 761.187 923.537 757.757 926.072C756.804 926.776 756.396 926.755 755.305 926.69L754.762 925.734C754.828 918.633 762.858 906.741 766.765 900.556C763.378 899.548 759.945 898.838 756.489 898.115C754.29 903.715 746.785 916.831 743.065 921.808C741.821 923.472 740.559 924.909 738.454 925.263L737.851 924.379C738.08 916.931 748.379 903.448 752.657 897.13C747.748 895.998 742.847 894.834 737.954 893.64L737.766 894.495C738.417 895.527 738.88 896.19 739.042 897.427C736.651 902.473 727.524 920.228 724.158 923.295C722.842 923.328 722.606 923.275 721.447 922.652L721.11 921.477C722.874 914.11 731.85 900.264 736.069 893.323C731.843 892.09 727.624 890.944 723.291 890.162C721.816 894.099 710.258 916.655 707.952 918.734C706.796 919.776 705.813 920.151 704.281 920.083L703.751 919.241C703.764 912.8 715.876 896.163 719.177 889.581C717.23 888.134 711.337 887.503 708.733 886.797C705.491 893.993 701.272 901.039 697.276 907.846C696.468 909.224 695.957 910.554 694.364 910.975L692.945 909.612C690.819 914.291 694.898 921.823 692.084 925.967C691.197 927.273 689.889 928.194 688.275 928.298C687.101 928.374 685.73 928.005 684.89 927.136C681.516 923.647 684.184 881.663 684.502 875.55C673.982 880.215 662.876 883.682 652.072 887.653C638.055 892.806 624.241 898.468 610.277 903.759C597.625 908.553 584.879 912.908 572.506 918.409C563.244 915.958 553.564 914.998 544.092 913.634L491.622 906.409L235.365 871.739L156.349 861.062C151.818 860.413 147.201 860.407 142.675 859.712C141.088 859.468 139.101 859.104 137.782 858.101C136.665 857.252 135.965 856.26 135.81 854.836C135.608 852.968 136.261 851.79 137.436 850.483C139.041 849.616 140.129 849.618 141.931 849.796C151.803 850.77 161.66 852.484 171.516 853.681C213.348 858.939 255.135 864.549 296.873 870.51L520.611 900.09C534.455 902.09 554.819 903.183 567.489 906.984C567.637 897.888 567.684 888.791 567.629 879.695C563.152 878.619 558.334 878.281 553.762 877.716L526.985 874.504L451.876 864.892L222.003 836.42L163.65 829.415C154.14 828.324 144.266 827.658 134.842 826.198C132.542 825.842 129.04 824.355 127.913 822.141C127.238 820.816 127.303 820.458 127.613 819.088C129.574 816.935 131.927 816.404 134.768 816.396C140.069 816.382 145.572 817.415 150.832 818.065L177.722 821.379L261.695 831.472L475.237 857.662L539.387 865.904C549.207 867.181 560.189 869.954 570.04 869.363C576.747 868.961 598.344 859.768 605.85 857.158L758 802.906L857.128 769.129C868.051 765.341 879.5 762.186 890.213 757.948C865.294 756.039 840.595 754.444 815.617 753.498C807.086 753.174 798.653 752.297 790.103 752.482C779.797 752.705 769.504 754.556 759.214 755.259C731.474 757.157 703.965 758.82 676.161 759.497L676.166 760.079L676.162 761.004C676.166 762.886 676.397 764.394 674.872 765.793C672.268 768.182 663.636 769.6 660.127 770.577C620.319 781.671 580.069 790.011 539.753 798.942C522.616 802.739 505.43 807.472 488.081 810.189C480.274 811.412 472.675 811.347 464.825 810.698L461.996 807.954C438.831 806.77 415.626 802.879 392.622 799.931L298.969 788.7C272.697 785.718 246.443 782.583 220.208 779.296C207.463 777.749 194.124 777.164 181.628 774.185C179.201 768.873 178.307 762.158 176.804 756.494C172.291 739.308 167.905 722.088 163.648 704.836L124.528 551.059C121.979 541.402 109.916 500.191 111.188 494.205C111.491 492.78 112.464 491.409 113.826 490.817C115.717 489.994 119.114 490.223 121.199 490.278C139.46 490.897 157.716 491.669 175.964 492.595L259.615 495.597L374.468 499.684C383.868 500.089 393.321 500.026 402.709 500.611C405.224 500.767 409.392 500.865 411.627 502.035C413.955 503.255 415.829 506.42 416.722 508.782C419.138 515.173 420.01 522.457 421.784 529.08C426.67 547.32 431.372 565.651 436.495 583.823C438.694 574.968 441.896 566.186 444.68 557.492C454.251 527.612 469.538 481.901 486.213 456.227C495.37 442.128 503.183 438.672 519.231 435.116L539.921 430.646C531.019 427.567 521.884 421.346 515.208 414.729C491.299 391.035 485.845 356.718 482.056 324.798C480.842 314.57 480.24 303.55 477.012 293.738C473.73 283.765 468.66 273.81 463.832 264.481C456.885 251.057 448.578 238.155 448.489 222.555ZM591.525 185.429C558.334 205.161 521.192 216.525 483.697 224.788C483.543 252.39 485.822 281.005 489.296 308.346C493.504 341.467 496.901 382.72 521.738 407.764C532.035 418.147 545.105 423.897 559.74 423.859C574.23 423.821 588.216 421.06 600.883 413.838C604.629 411.702 607.938 408.464 611.837 406.687C613.808 405.788 615.455 406.204 616.94 407.774C617.823 408.708 618.274 410.152 618.186 411.409C617.982 414.326 613.028 417.73 610.778 419.307C605.264 423.171 598.868 426.13 592.578 428.485C590.773 454.515 589.732 480.809 591.29 506.876L591.62 508.209C592.772 508.176 592.891 507.826 593.666 507.036C596.078 504.579 597.936 501.762 600.524 499.417C609.78 491.03 620.042 484.053 628.994 475.251C646.976 457.573 667.463 426.511 666.664 400.598C666.195 385.37 663.56 369.742 661.93 354.579C660.532 341.578 660.057 328.044 657.742 315.207C654.84 314.696 649.1 314.374 647.302 311.662C646.587 310.583 646.87 309.737 647.044 308.559C648.035 307.325 648.466 307.052 650.134 306.901C652.752 306.662 655.331 307.015 657.94 306.922C664.057 306.704 669.061 302.609 672.887 298.172C679.939 289.992 685.718 278.031 684.928 266.991C684.606 262.495 682.885 257.492 679.188 254.643C678.318 253.973 677.348 253.431 676.406 252.873L675.847 252.537C669.672 252.267 665.271 253.242 660.573 257.643C654.704 263.141 650.63 271.513 647.063 278.642C645.722 281.321 644.488 284.597 642.573 286.899C641.693 287.956 640.537 288.923 639.101 288.899C636.079 288.847 630.315 286.218 628.388 283.898C627.407 282.716 626.863 281.311 626.552 279.822C625.451 274.553 625.184 268.853 624.553 263.498C622.736 248.059 621.566 232.466 619.474 217.076C607.625 211.907 600.16 208.821 595.127 196.068C593.978 193.157 593.452 187.424 591.525 185.429ZM674.412 378.326L674.423 378.947C674.66 387.822 676.884 396.422 676.447 405.382C675.068 433.669 655.928 461.272 637.218 481.266L632.904 485.859C641.931 484.812 649.079 487.671 657.118 491.505C662.971 495.126 667.109 499.483 671.464 504.781C673.603 494.346 676.892 484.223 679.401 473.881C685.296 449.575 693.884 406.154 679.22 383.938C677.855 381.869 676.427 379.81 674.412 378.326ZM697.323 411.709C697.301 411.871 697.277 412.034 697.257 412.196C696.169 421.096 697.205 430.257 696.13 439.303C694.921 449.477 681.593 515.244 676.044 519.619C674.854 520.557 672.502 520.797 671.051 520.421C667.066 519.39 663.507 511.3 660.859 508.09C649.535 494.367 633.638 491.977 618.033 500.081C607.332 505.639 601.598 513.559 594.388 522.84C592.118 525.762 589.591 528.065 588.458 531.693C586.769 537.1 586.174 543.275 585.231 548.871C583.257 560.651 581.374 572.446 579.58 584.255C573.403 624.544 568.094 665.008 560.583 705.082C597.518 708.342 617.476 699.947 651.936 689.447C674.937 682.439 698.092 675.186 721.343 669.06C721.239 663.037 724.453 657.527 728.523 653.292C730.096 651.654 731.848 650.168 733.563 648.68C732.305 641.402 731.571 634.056 730.515 626.75C727.105 598.48 724.712 570.393 724.267 541.909C724.209 538.153 723.072 528.506 725.269 525.751C725.707 525.202 726.116 525.187 726.748 524.973C728.22 525.787 728.76 526.669 729.274 528.273C731.8 536.143 731.724 555.425 732.464 564.786C733.848 581.265 735.517 597.719 737.472 614.14C738.687 624.265 739.751 634.521 741.797 644.513C747.737 642.649 753.603 640.917 759.794 640.064C783.773 636.759 817.802 641.171 841.285 648.006C836.273 613.579 831.619 578.958 821.989 545.448C810.872 506.761 799.527 481.711 769.578 453.544C763.623 447.944 757.563 442.29 750.986 437.419C734.855 425.584 716.655 416.864 697.323 411.709ZM580.297 431.194C578.302 431.416 577.247 431.2 575.907 432.924C568.217 442.817 559.707 460.338 555.284 472.252C553.137 478.034 551.684 484.2 549.26 489.85C553.027 488.079 556.566 486.526 560.627 485.536C567.194 485.408 571.756 487.214 576.612 491.756C578.148 493.193 579.517 494.855 580.89 496.446C580.299 487.645 580.363 478.766 580.614 469.951C580.773 464.37 582.983 433.528 582.279 431.147C581.388 430.944 581.262 430.971 580.297 431.194ZM559.086 433.668C558.239 433.96 557.642 434.247 556.873 434.714C553.842 436.553 549.231 437.174 545.765 438.001C535.2 440.523 513.428 444.244 504.617 449.672C481.743 463.764 451.522 570.857 440.838 601.131C444.573 617.259 447.788 633.825 452.663 649.643C454.364 634.616 471.683 528.625 477.181 523.895C478.547 523.77 478.642 523.739 479.81 524.44C480.908 526.486 480.753 528.203 480.45 530.465C479.775 535.491 478.273 540.507 477.222 545.473C475.892 551.753 474.981 558.213 473.954 564.556C470.603 585.263 468.249 606.241 464.621 626.883L460.964 653.071C460.169 658.501 458.786 664.292 458.852 669.777C458.939 677.086 462.005 685.315 463.673 692.442C465.554 700.478 467.078 708.681 469.22 716.645C473.942 713.599 478.945 710.936 483.863 708.216C505.332 696.341 514.269 699.198 537.504 702.229C543.168 702.968 548.867 703.892 554.57 704.225C557.047 690.524 558.753 676.646 560.882 662.884C565.229 633.541 569.855 604.241 574.761 574.987L580.174 542.892C581.312 536.278 582.206 529.491 583.951 523.011C576.724 516.994 576.721 494.187 562.282 495.811C554.353 496.703 543.472 508.229 537.011 505.709C535.779 504.453 535.534 503.307 535.576 501.606C535.717 496.003 538.601 489.8 540.483 484.55C546.279 468.388 551.912 451.924 561.602 437.619C562.498 436.295 563.299 435.334 562.52 433.806C561.33 433.416 560.305 433.557 559.086 433.668ZM123.086 499.966C123.947 502.742 124.71 505.646 125.768 508.349L300.992 515.143C333.069 516.303 366.077 518.627 398.077 518.558L400.26 515.271L402.995 511.063C393.109 510.113 383.077 510.166 373.152 509.735L316.534 507.251L123.086 499.966ZM410.463 521.596C408.93 523.57 407.292 524.991 405.352 526.525C407.694 536.056 409.422 545.725 411.727 555.262L436.854 656.525C441.951 677.188 446.493 698.035 451.797 718.635C454.107 727.609 456.838 736.474 459.315 745.402C462.916 758.375 466.049 771.463 469.575 784.453C470.924 789.425 471.992 794.9 473.815 799.701C475.398 799.455 477.133 799.43 478.371 798.323C477.583 789.843 474.351 780.847 472.31 772.534C468.75 758.033 465.538 743.454 461.9 728.969C455.276 702.59 449.479 675.978 442.891 649.586C437.012 626.031 430.265 602.658 424.762 579.015C423.158 572.125 411.73 523.012 410.463 521.596ZM766.83 648.718C755.988 649.885 740.785 651.724 733.312 660.792C732.35 661.961 731.326 663.309 731.239 664.862C733.701 666.06 753.24 659.869 758.085 659.245C771.225 657.553 787.784 658.142 800.505 661.891C818.439 667.176 835.72 680.748 842.044 698.731C845.251 707.85 845.162 716.554 844.441 726.062C848.039 724.323 850.581 722.755 853.151 719.577C856.316 713.423 855.238 707.259 853.177 700.907C851.67 696.263 849.45 690.87 845.825 687.515C844.288 686.093 841.941 684.529 840.863 682.76C840.441 682.066 840.676 681.415 840.977 680.69C841.529 679.362 842.483 678.8 843.704 678.224C847.058 678.348 849.781 681.283 851.923 683.66C854.602 686.633 858.9 697.595 861.993 698.496C865.203 693.972 865.624 687.543 864.709 682.179C863.385 674.425 857.913 668.177 851.564 663.902C835.058 652.79 805.555 650.053 786.128 648.937C779.889 648.578 773.021 647.944 766.83 648.718ZM761.865 668.702C744.697 670.479 729.805 676.284 713.558 681.357C705.348 683.921 696.974 685.95 688.722 688.374L651.923 699.583C635.313 704.599 618.642 711.064 601.44 713.69C579.95 716.972 557.37 714.022 535.953 711.685C526.759 710.682 515.623 707.683 506.448 709.675C497.311 711.658 488.238 717.397 480.192 722.045C479.269 722.573 478.352 723.111 477.441 723.66C497.732 727.203 504.238 715.281 518.378 716.501C522.079 716.82 525.719 718.45 529.265 719.509C531.942 720.308 535.951 721.221 537.731 723.548C538.376 724.391 538.872 726.234 538.634 727.327C538.352 728.618 537.838 729.14 536.68 729.75C531.54 732.457 522.016 725.606 516.32 726.003C511.198 726.36 481.872 738.63 475.645 741.66C476.494 745.606 477.311 749.527 477.894 753.522C481.1 752.868 484.275 752.232 487.406 751.269C497.15 748.92 516.661 742.096 525.549 741.995C531.566 741.926 540.907 747.981 546.891 750.08C559.312 754.435 573.251 757.272 586.45 756.93C607.467 756.384 628.415 752.566 649.403 751.133C661.226 750.326 673.217 750.524 685.071 750.099C705.125 749.41 725.161 748.283 745.166 746.719C755.459 745.907 765.739 744.947 776.003 743.839C782.736 743.141 789.457 742.203 796.234 742.17C802.612 742.139 808.221 744.657 815.926 744.529C824.532 738.151 832.895 734.647 834.588 722.854C836.326 710.749 833.602 699.831 826.213 690.057C817.979 679.163 803.773 671.174 790.278 669.434C782.099 668.379 769.76 667.061 761.865 668.702ZM524.448 751.606C516.451 753.491 508.634 756.176 500.732 758.426C494.031 760.335 487.208 761.834 480.41 763.354C482.006 770.582 483.656 777.876 485.662 784.998C493.917 784.466 501.81 782.273 509.866 780.546C516.521 779.119 523.233 778.018 529.945 776.904C537.099 775.793 544.255 774.702 551.326 773.137C561.587 770.866 571.842 768.007 582.231 766.414C568.326 764.986 554.95 763.114 541.671 758.453C535.911 756.431 530.429 752.859 524.448 751.606ZM650.171 760.72C639.659 761.203 629.938 762.576 619.626 764.694C609.36 766.802 599.26 769.998 589.105 772.596C570.835 777.269 551.94 781.731 533.435 785.355C520.967 787.796 508.631 790.709 496.192 793.187C493.894 793.645 490.09 793.353 488.172 794.508C487.795 795.676 487.678 796.262 488.248 797.469C488.767 798.57 489.624 799.036 490.705 799.426C492.944 799.133 495.162 798.612 497.374 798.156L596.357 776.46C607.39 774.018 618.335 771.307 629.338 768.747C639.866 766.297 650.658 764.06 660.92 760.643C657.345 760.613 653.739 760.492 650.171 760.72ZM898.704 766.102C889.594 767.864 880.374 771.667 871.567 774.651L823.497 791.086C767.363 809.918 711.501 829.549 655.926 849.973L599.922 869.622C592.318 872.334 583.257 874.551 576.332 878.643C578.02 885.593 575.703 900.304 577.529 904.586C578.549 904.654 579.162 904.521 580.123 904.18C595.577 898.739 610.773 892.713 626.124 887.003C666.623 871.601 707.318 856.72 748.199 842.365L828.419 814.597C836.495 811.887 844.641 809.412 852.679 806.58C858.524 804.52 864.246 802.121 870.094 800.079C881.5 796.098 892.561 792.48 903.699 787.713C903.857 781.087 904.943 772.833 903.539 766.383C902 765.561 900.41 765.839 898.704 766.102ZM814.481 829.511C793.009 836.712 771.859 844.814 750.471 852.256C733.112 858.296 715.059 863.634 698.112 870.718C696.711 871.304 695.394 871.855 694.506 873.138C695.982 875.041 712.214 877.79 715.661 878.599L775.23 892.739C784.311 894.888 793.619 897.907 802.892 898.935C807.706 895.69 810.962 890.838 812.056 885.13C813.02 880.098 816.22 831.571 815.095 829.639L814.481 829.511ZM694.114 884.334C692.636 891.508 693.251 899.576 692.452 906.937C694.251 903.242 696.22 899.708 698.308 896.169C700.364 892.478 702.596 889.016 705.019 885.556C702.779 885.323 700.581 885.079 698.371 884.623C697.742 885.802 697.206 887.373 695.922 887.931C694.876 886.757 694.804 885.631 694.114 884.334Z"/><path fill="#FEFEFE" d="M483.697 224.788C521.192 216.525 558.334 205.161 591.525 185.429C593.452 187.424 593.978 193.157 595.127 196.068C600.16 208.821 607.625 211.907 619.474 217.076C621.566 232.466 622.736 248.059 624.553 263.498C625.184 268.853 625.451 274.553 626.552 279.822C626.863 281.311 627.407 282.716 628.388 283.898C630.315 286.218 636.079 288.847 639.101 288.899C640.537 288.923 641.693 287.956 642.573 286.899C644.488 284.597 645.722 281.321 647.063 278.642C650.63 271.513 654.704 263.141 660.573 257.643C665.271 253.242 669.672 252.267 675.847 252.537L676.406 252.873C677.348 253.431 678.318 253.973 679.188 254.643C682.885 257.492 684.606 262.495 684.928 266.991C685.718 278.031 679.939 289.992 672.887 298.172C669.061 302.609 664.057 306.704 657.94 306.922C655.331 307.015 652.752 306.662 650.134 306.901C648.466 307.052 648.035 307.325 647.044 308.559C646.87 309.737 646.587 310.583 647.302 311.662C649.1 314.374 654.84 314.696 657.742 315.207C660.057 328.044 660.532 341.578 661.93 354.579C663.56 369.742 666.195 385.37 666.664 400.598C667.463 426.511 646.976 457.573 628.994 475.251C620.042 484.053 609.78 491.03 600.524 499.417C597.936 501.762 596.078 504.579 593.666 507.036C592.891 507.826 592.772 508.176 591.62 508.209L591.29 506.876C589.732 480.809 590.773 454.515 592.578 428.485C598.868 426.13 605.264 423.171 610.778 419.307C613.028 417.73 617.982 414.326 618.186 411.409C618.274 410.152 617.823 408.708 616.94 407.774C615.455 406.204 613.808 405.788 611.837 406.687C607.938 408.464 604.629 411.702 600.883 413.838C588.216 421.06 574.23 423.821 559.74 423.859C545.105 423.897 532.035 418.147 521.738 407.764C496.901 382.72 493.504 341.467 489.296 308.346C485.822 281.005 483.543 252.39 483.697 224.788ZM573.608 223.597C568.263 224.945 559.25 226.947 556.232 232.107C555.691 233.03 555.435 234.035 555.648 235.101C555.834 236.036 556.341 236.554 556.95 237.234C558.262 237.71 558.478 237.872 559.82 237.252C566.208 234.298 566.977 232.139 574.901 230.907C577.052 230.903 579.504 230.749 581.593 231.291C585.189 232.224 590.916 235.755 594.398 234.452C595.115 233.391 595.447 232.603 595.229 231.285C594.911 229.363 593.23 227.908 591.638 226.97C586.357 223.861 579.581 223.334 573.608 223.597ZM505.096 234.624C498.956 236.177 492.07 238.109 488.486 243.843C487.689 245.117 487.407 246.136 487.409 247.652C487.881 248.529 488.092 248.945 489.213 249.094C492.768 249.566 497.255 244.339 500.574 242.824C500.771 242.755 500.967 242.683 501.165 242.616C508.464 240.142 518.504 244.443 521.726 242.635C522.063 241.39 522.37 240.333 521.782 239.077C520.652 236.664 517.571 235.687 515.191 235.123C511.862 234.336 508.489 234.282 505.096 234.624ZM668.371 260.046C662.567 261.694 656.74 267.414 653.926 272.747C653.272 273.986 652.926 275.381 653.394 276.755C653.556 277.229 653.806 277.508 654.095 277.887C655.428 278.016 655.992 277.786 657.071 276.962C660.437 274.396 665.683 265.834 670.063 265.92C670.791 265.934 671.077 266.386 671.605 266.823C673.04 269.93 672.973 274.094 671.746 277.281C670.492 280.536 668.088 283.791 665.871 286.471C663.024 289.094 658.414 289.915 656.211 292.923C656.218 293.967 656.542 295.36 657.344 296.124C658.267 297.003 659.045 297.174 660.291 297.116C664.827 296.903 671.488 289.685 674.046 286.128C677.887 280.786 680.529 273.921 679.377 267.268C678.97 264.919 677.951 263.162 675.947 261.858C673.458 260.239 671.298 259.808 668.371 260.046ZM578.32 266.598C575.453 267.249 573.146 267.932 571.522 270.562C570.075 272.907 569.787 275.628 570.445 278.281C571.083 280.856 572.957 283.55 575.32 284.825C576.811 285.63 578.304 285.714 579.964 285.843C583.123 284.428 585.235 283.137 586.561 279.791C587.542 277.315 587.646 274.562 586.557 272.098C585.668 270.084 583.852 268.215 581.766 267.442C580.677 267.039 579.469 266.766 578.32 266.598ZM531.616 270.79C530.83 272.02 530.546 272.838 530.585 274.312C530.883 285.461 533.187 297.2 534.584 308.285C535.698 317.128 536.117 326.824 538.101 335.476C538.419 336.861 538.816 338.12 539.388 339.42C541.894 340.708 545.847 339.263 548.403 338.44C551.641 337.398 554.634 336.056 557.656 334.506C558.651 333.261 559.11 332.612 559.435 331C558.749 329.939 558.521 329.714 557.187 329.428C553.483 328.632 546.218 333.014 542.593 334.157C541.656 325.687 537.322 274.756 534.623 271.303C533.587 270.988 532.696 270.857 531.616 270.79ZM506.567 281.028C503.834 282.414 502.495 283.511 501.457 286.461C500.343 289.625 500.527 293.35 502.016 296.362C503.07 298.494 504.828 300.292 507.126 301.032C508.651 301.522 510.082 301.439 511.652 301.285C514.652 299.289 516.602 297.121 517.271 293.479C517.585 291.767 517.495 289.951 517.462 288.217C515.883 285.407 514.392 282.089 510.999 281.172C509.545 280.78 508.048 280.912 506.567 281.028ZM609.992 335.533L609.211 335.814C600.012 339.076 589.947 340.711 580.423 342.88C568.2 345.707 556.014 348.688 543.867 351.821C538.395 353.193 532.208 353.724 527.047 356.01C525.906 356.515 524.875 357.541 524.282 358.642C523.607 359.896 523.5 360.986 523.97 362.33C526.026 368.204 541.042 383.071 545.798 388.052C552.701 394.89 561.753 402.894 572.111 402.847C578.785 402.817 584.452 398.999 588.891 394.319C599.52 383.113 608.452 361.877 613.699 347.28C614.412 345.299 616.101 341.987 616.154 339.927C616.183 338.852 615.352 337.512 614.533 336.863C613.281 335.869 611.543 335.559 609.992 335.533Z"/><path fill="#2D2F2E" d="M574.901 230.907C566.977 232.139 566.208 234.298 559.82 237.252C558.478 237.872 558.262 237.71 556.95 237.234C556.341 236.554 555.834 236.036 555.648 235.101C555.435 234.035 555.691 233.03 556.232 232.107C559.25 226.947 568.263 224.945 573.608 223.597C579.581 223.334 586.357 223.861 591.638 226.97C593.23 227.908 594.911 229.363 595.229 231.285C595.447 232.603 595.115 233.391 594.398 234.452C590.916 235.755 585.189 232.224 581.593 231.291C579.504 230.749 577.052 230.903 574.901 230.907Z"/><path fill="#2D2F2E" d="M500.574 242.824C497.255 244.339 492.768 249.566 489.213 249.094C488.092 248.945 487.881 248.529 487.409 247.652C487.407 246.136 487.689 245.117 488.486 243.843C492.07 238.109 498.956 236.177 505.096 234.624C508.489 234.282 511.862 234.336 515.191 235.123C517.571 235.687 520.652 236.664 521.782 239.077C522.37 240.333 522.063 241.39 521.726 242.635C518.504 244.443 508.464 240.142 501.165 242.616C500.967 242.683 500.771 242.755 500.574 242.824Z"/><path fill="#2D2F2E" d="M665.871 286.471C668.088 283.791 670.492 280.536 671.746 277.281C672.973 274.094 673.04 269.93 671.605 266.823C671.077 266.386 670.791 265.934 670.063 265.92C665.683 265.834 660.437 274.396 657.071 276.962C655.992 277.786 655.428 278.016 654.095 277.887C653.806 277.508 653.556 277.229 653.394 276.755C652.926 275.381 653.272 273.986 653.926 272.747C656.74 267.414 662.567 261.694 668.371 260.046C671.298 259.808 673.458 260.239 675.947 261.858C677.951 263.162 678.97 264.919 679.377 267.268C680.529 273.921 677.887 280.786 674.046 286.128C671.488 289.685 664.827 296.903 660.291 297.116C659.045 297.174 658.267 297.003 657.344 296.124C656.542 295.36 656.218 293.967 656.211 292.923C658.414 289.915 663.024 289.094 665.871 286.471Z"/><path fill="#2D2F2E" d="M579.964 285.843C578.304 285.714 576.811 285.63 575.32 284.825C572.957 283.55 571.083 280.856 570.445 278.281C569.787 275.628 570.075 272.907 571.522 270.562C573.146 267.932 575.453 267.249 578.32 266.598C579.469 266.766 580.677 267.039 581.766 267.442C583.852 268.215 585.668 270.084 586.557 272.098C587.646 274.562 587.542 277.315 586.561 279.791C585.235 283.137 583.123 284.428 579.964 285.843Z"/><path fill="#2D2F2E" d="M557.656 334.506C554.634 336.056 551.641 337.398 548.403 338.44C545.847 339.263 541.894 340.708 539.388 339.42C538.816 338.12 538.419 336.861 538.101 335.476C536.117 326.824 535.698 317.128 534.584 308.285C533.187 297.2 530.883 285.461 530.585 274.312C530.546 272.838 530.83 272.02 531.616 270.79C532.696 270.857 533.587 270.988 534.623 271.303C537.322 274.756 541.656 325.687 542.593 334.157C546.218 333.014 553.483 328.632 557.187 329.428C558.521 329.714 558.749 329.939 559.435 331C559.11 332.612 558.651 333.261 557.656 334.506Z"/><path fill="#2D2F2E" d="M511.652 301.285C510.082 301.439 508.651 301.522 507.126 301.032C504.828 300.292 503.07 298.494 502.016 296.362C500.527 293.35 500.343 289.625 501.457 286.461C502.495 283.511 503.834 282.414 506.567 281.028C508.048 280.912 509.545 280.78 510.999 281.172C514.392 282.089 515.883 285.407 517.462 288.217C517.495 289.951 517.585 291.767 517.271 293.479C516.602 297.121 514.652 299.289 511.652 301.285Z"/><path fill="#2D2F2E" d="M545.798 388.052C541.042 383.071 526.026 368.204 523.97 362.33C523.5 360.986 523.607 359.896 524.282 358.642C524.875 357.541 525.906 356.515 527.047 356.01C532.208 353.724 538.395 353.193 543.867 351.821C556.014 348.688 568.2 345.707 580.423 342.88C589.947 340.711 600.012 339.076 609.211 335.814L609.992 335.533C611.543 335.559 613.281 335.869 614.533 336.863C615.352 337.512 616.183 338.852 616.154 339.927C616.101 341.987 614.412 345.299 613.699 347.28C608.452 361.877 599.52 383.113 588.891 394.319C584.452 398.999 578.785 402.817 572.111 402.847C561.753 402.894 552.701 394.89 545.798 388.052ZM600.86 348.069L564.279 357.124C555.419 359.282 546.185 361.128 537.622 364.276C542.611 369.806 546.793 376.187 552.317 381.191C557.959 386.313 563.444 391.068 570.96 393.164C578.237 391.843 582.359 387.933 586.489 381.994C593.306 372.191 598.688 360.113 602.689 348.919L602.461 348.115C601.929 348.08 601.39 348.001 600.86 348.069Z"/><path fill="#FEFEFE" d="M537.622 364.276C546.185 361.128 555.419 359.282 564.279 357.124L600.86 348.069C601.39 348.001 601.929 348.08 602.461 348.115L602.689 348.919C598.688 360.113 593.306 372.191 586.489 381.994C582.359 387.933 578.237 391.843 570.96 393.164C563.444 391.068 557.959 386.313 552.317 381.191C546.793 376.187 542.611 369.806 537.622 364.276Z"/><path fill="#FEFEFE" d="M632.904 485.859L637.218 481.266C655.928 461.272 675.068 433.669 676.447 405.382C676.884 396.422 674.66 387.822 674.423 378.947L674.412 378.326C676.427 379.81 677.855 381.869 679.22 383.938C693.884 406.154 685.296 449.575 679.401 473.881C676.892 484.223 673.603 494.346 671.464 504.781C667.109 499.483 662.971 495.126 657.118 491.505C649.079 487.671 641.931 484.812 632.904 485.859Z"/><path fill="#2D2F2E" d="M268.546 432.719C268.089 432.688 267.161 432.648 266.743 432.515C265.474 432.113 265.117 430.886 264.703 429.767C262.393 423.516 257.447 402.472 257.24 396.059C257.199 394.803 257.591 393.885 258.104 392.762C259.256 392.839 260.073 392.995 261.144 393.43C263.342 396.334 264.121 401.222 264.93 404.736C266.247 410.457 270.271 425.361 269.68 430.265C269.57 431.177 269.02 431.963 268.546 432.719Z"/><path fill="#2D2F2E" d="M356.093 442.713C355.19 442.502 354.371 442.193 353.498 441.88C352.592 440.979 352.237 440.306 352.044 439.065C350.215 427.261 361.119 402.295 367.704 392.817C368.42 392.987 369.58 393.243 370.167 393.665C370.675 394.03 371.153 394.563 371.227 395.205C371.59 398.352 367.265 404.96 365.873 407.79C363.294 413.034 361.697 418.532 360.287 424.187C359.156 428.723 358.617 439.532 356.093 442.713Z"/><path fill="#FEFEFE" d="M560.583 705.082C568.094 665.008 573.403 624.544 579.58 584.255C581.374 572.446 583.257 560.651 585.231 548.871C586.174 543.275 586.769 537.1 588.458 531.693C589.591 528.065 592.118 525.762 594.388 522.84C601.598 513.559 607.332 505.639 618.033 500.081C633.638 491.977 649.535 494.367 660.859 508.09C663.507 511.3 667.066 519.39 671.051 520.421C672.502 520.797 674.854 520.557 676.044 519.619C681.593 515.244 694.921 449.477 696.13 439.303C697.205 430.257 696.169 421.096 697.257 412.196C697.277 412.034 697.301 411.871 697.323 411.709C716.655 416.864 734.855 425.584 750.986 437.419C757.563 442.29 763.623 447.944 769.578 453.544C799.527 481.711 810.872 506.761 821.989 545.448C831.619 578.958 836.273 613.579 841.285 648.006C817.802 641.171 783.773 636.759 759.794 640.064C753.603 640.917 747.737 642.649 741.797 644.513C739.751 634.521 738.687 624.265 737.472 614.14C735.517 597.719 733.848 581.265 732.464 564.786C731.724 555.425 731.8 536.143 729.274 528.273C728.76 526.669 728.22 525.787 726.748 524.973C726.116 525.187 725.707 525.202 725.269 525.751C723.072 528.506 724.209 538.153 724.267 541.909C724.712 570.393 727.105 598.48 730.515 626.75C731.571 634.056 732.305 641.402 733.563 648.68C731.848 650.168 730.096 651.654 728.523 653.292C724.453 657.527 721.239 663.037 721.343 669.06C698.092 675.186 674.937 682.439 651.936 689.447C617.476 699.947 597.518 708.342 560.583 705.082ZM597.84 564.509C595.37 565.159 593.773 565.861 592.521 568.192C591.67 569.777 591.459 571.614 592.089 573.322C592.606 574.723 593.774 576.254 595.131 576.941C596.203 577.485 597.677 577.448 598.858 577.508C601.258 576.708 603.119 575.779 604.377 573.474C605.139 572.079 605.464 570.349 605.023 568.8C604.514 567.015 603.165 565.791 601.5 565.096C600.318 564.603 599.102 564.553 597.84 564.509ZM582.918 655.561C580.801 656.376 579.222 657.362 578.207 659.475C577.472 661.003 577.323 662.716 577.896 664.32C578.528 666.092 579.884 667.512 581.624 668.227C583.06 668.805 584.829 668.734 586.352 668.622C588.494 667.523 590.542 665.932 591.133 663.452C591.557 661.675 591.263 659.897 590.193 658.406C589.175 656.989 587.282 655.738 585.52 655.564C584.662 655.479 583.778 655.525 582.918 655.561Z"/><path fill="#2D2F2E" d="M202.059 462.496C201.284 462.448 200.503 462.313 199.732 462.213C194.168 458.714 179.663 438.209 176.72 431.789C176.925 430.095 177.61 429.594 178.674 428.293C179.113 428.412 179.556 428.525 179.985 428.679C183.229 429.845 201.724 455.013 203.699 459.14C203.635 460.891 203.135 461.164 202.059 462.496Z"/><path fill="#FEFEFE" d="M549.26 489.85C551.684 484.2 553.137 478.034 555.284 472.252C559.707 460.338 568.217 442.817 575.907 432.924C577.247 431.2 578.302 431.416 580.297 431.194C581.262 430.971 581.388 430.944 582.279 431.147C582.983 433.528 580.773 464.37 580.614 469.951C580.363 478.766 580.299 487.645 580.89 496.446C579.517 494.855 578.148 493.193 576.612 491.756C571.756 487.214 567.194 485.408 560.627 485.536C556.566 486.526 553.027 488.079 549.26 489.85Z"/><path fill="#FEFEFE" d="M440.838 601.131C451.522 570.857 481.743 463.764 504.617 449.672C513.428 444.244 535.2 440.523 545.765 438.001C549.231 437.174 553.842 436.553 556.873 434.714C557.642 434.247 558.239 433.96 559.086 433.668C560.305 433.557 561.33 433.416 562.52 433.806C563.299 435.334 562.498 436.295 561.602 437.619C551.912 451.924 546.279 468.388 540.483 484.55C538.601 489.8 535.717 496.003 535.576 501.606C535.534 503.307 535.779 504.453 537.011 505.709C543.472 508.229 554.353 496.703 562.282 495.811C576.721 494.187 576.724 516.994 583.951 523.011C582.206 529.491 581.312 536.278 580.174 542.892L574.761 574.987C569.855 604.241 565.229 633.541 560.882 662.884C558.753 676.646 557.047 690.524 554.57 704.225C548.867 703.892 543.168 702.968 537.504 702.229C514.269 699.198 505.332 696.341 483.863 708.216C478.945 710.936 473.942 713.599 469.22 716.645C467.078 708.681 465.554 700.478 463.673 692.442C462.005 685.315 458.939 677.086 458.852 669.777C458.786 664.292 460.169 658.501 460.964 653.071L464.621 626.883C468.249 606.241 470.603 585.263 473.954 564.556C474.981 558.213 475.892 551.753 477.222 545.473C478.273 540.507 479.775 535.491 480.45 530.465C480.753 528.203 480.908 526.486 479.81 524.44C478.642 523.739 478.547 523.77 477.181 523.895C471.683 528.625 454.364 634.616 452.663 649.643C447.788 633.825 444.573 617.259 440.838 601.131Z"/><path fill="#2D2F2E" d="M423.781 470.98C422.591 470.62 421.928 470.272 420.978 469.468C420.556 468.593 420.417 468.111 420.492 467.113C421.15 458.407 440.104 439.651 447.318 434.379C447.802 434.431 448.541 434.491 448.988 434.643C450.263 435.079 450.491 435.419 450.928 436.566C449.928 440.974 439.237 449.209 435.973 453.248C431.461 458.83 428.168 465.293 423.781 470.98Z"/><path fill="#FEFEFE" d="M125.768 508.349C124.71 505.646 123.947 502.742 123.086 499.966L316.534 507.251L373.152 509.735C383.077 510.166 393.109 510.113 402.995 511.063L400.26 515.271L398.077 518.558C366.077 518.627 333.069 516.303 300.992 515.143L125.768 508.349Z"/><path fill="#FEFEFE" d="M405.352 526.525C407.292 524.991 408.93 523.57 410.463 521.596C411.73 523.012 423.158 572.125 424.762 579.015C430.265 602.658 437.012 626.031 442.891 649.586C449.479 675.978 455.276 702.59 461.9 728.969C465.538 743.454 468.75 758.033 472.31 772.534C474.351 780.847 477.583 789.843 478.371 798.323C477.133 799.43 475.398 799.455 473.815 799.701C471.992 794.9 470.924 789.425 469.575 784.453C466.049 771.463 462.916 758.375 459.315 745.402C456.838 736.474 454.107 727.609 451.797 718.635C446.493 698.035 441.951 677.188 436.854 656.525L411.727 555.262C409.422 545.725 407.694 536.056 405.352 526.525Z"/><path fill="#2D2F2E" d="M598.858 577.508C597.677 577.448 596.203 577.485 595.131 576.941C593.774 576.254 592.606 574.723 592.089 573.322C591.459 571.614 591.67 569.777 592.521 568.192C593.773 565.861 595.37 565.159 597.84 564.509C599.102 564.553 600.318 564.603 601.5 565.096C603.165 565.791 604.514 567.015 605.023 568.8C605.464 570.349 605.139 572.079 604.377 573.474C603.119 575.779 601.258 576.708 598.858 577.508Z"/><path fill="#FEFEFE" d="M844.441 726.062C845.162 716.554 845.251 707.85 842.044 698.731C835.72 680.748 818.439 667.176 800.505 661.891C787.784 658.142 771.225 657.553 758.085 659.245C753.24 659.869 733.701 666.06 731.239 664.862C731.326 663.309 732.35 661.961 733.312 660.792C740.785 651.724 755.988 649.885 766.83 648.718C773.021 647.944 779.889 648.578 786.128 648.937C805.555 650.053 835.058 652.79 851.564 663.902C857.913 668.177 863.385 674.425 864.709 682.179C865.624 687.543 865.203 693.972 861.993 698.496C858.9 697.595 854.602 686.633 851.923 683.66C849.781 681.283 847.058 678.348 843.704 678.224C842.483 678.8 841.529 679.362 840.977 680.69C840.676 681.415 840.441 682.066 840.863 682.76C841.941 684.529 844.288 686.093 845.825 687.515C849.45 690.87 851.67 696.263 853.177 700.907C855.238 707.259 856.316 713.423 853.151 719.577C850.581 722.755 848.039 724.323 844.441 726.062Z"/><path fill="#2D2F2E" d="M586.352 668.622C584.829 668.734 583.06 668.805 581.624 668.227C579.884 667.512 578.528 666.092 577.896 664.32C577.323 662.716 577.472 661.003 578.207 659.475C579.222 657.362 580.801 656.376 582.918 655.561C583.778 655.525 584.662 655.479 585.52 655.564C587.282 655.738 589.175 656.989 590.193 658.406C591.263 659.897 591.557 661.675 591.133 663.452C590.542 665.932 588.494 667.523 586.352 668.622Z"/><path fill="#FEFEFE" d="M477.441 723.66C478.352 723.111 479.269 722.573 480.192 722.045C488.238 717.397 497.311 711.658 506.448 709.675C515.623 707.683 526.759 710.682 535.953 711.685C557.37 714.022 579.95 716.972 601.44 713.69C618.642 711.064 635.313 704.599 651.923 699.583L688.722 688.374C696.974 685.95 705.348 683.921 713.558 681.357C729.805 676.284 744.697 670.479 761.865 668.702C769.76 667.061 782.099 668.379 790.278 669.434C803.773 671.174 817.979 679.163 826.213 690.057C833.602 699.831 836.326 710.749 834.588 722.854C832.895 734.647 824.532 738.151 815.926 744.529C808.221 744.657 802.612 742.139 796.234 742.17C789.457 742.203 782.736 743.141 776.003 743.839C765.739 744.947 755.459 745.907 745.166 746.719C725.161 748.283 705.125 749.41 685.071 750.099C673.217 750.524 661.226 750.326 649.403 751.133C628.415 752.566 607.467 756.384 586.45 756.93C573.251 757.272 559.312 754.435 546.891 750.08C540.907 747.981 531.566 741.926 525.549 741.995C516.661 742.096 497.15 748.92 487.406 751.269C484.275 752.232 481.1 752.868 477.894 753.522C477.311 749.527 476.494 745.606 475.645 741.66C481.872 738.63 511.198 726.36 516.32 726.003C522.016 725.606 531.54 732.457 536.68 729.75C537.838 729.14 538.352 728.618 538.634 727.327C538.872 726.234 538.376 724.391 537.731 723.548C535.951 721.221 531.942 720.308 529.265 719.509C525.719 718.45 522.079 716.82 518.378 716.501C504.238 715.281 497.732 727.203 477.441 723.66Z"/><path fill="#FEFEFE" d="M480.41 763.354C487.208 761.834 494.031 760.335 500.732 758.426C508.634 756.176 516.451 753.491 524.448 751.606C530.429 752.859 535.911 756.431 541.671 758.453C554.95 763.114 568.326 764.986 582.231 766.414C571.842 768.007 561.587 770.866 551.326 773.137C544.255 774.702 537.099 775.793 529.945 776.904C523.233 778.018 516.521 779.119 509.866 780.546C501.81 782.273 493.917 784.466 485.662 784.998C483.656 777.876 482.006 770.582 480.41 763.354Z"/><path fill="#FEFEFE" d="M497.374 798.156C495.162 798.612 492.944 799.133 490.705 799.426C489.624 799.036 488.767 798.57 488.248 797.469C487.678 796.262 487.795 795.676 488.172 794.508C490.09 793.353 493.894 793.645 496.192 793.187C508.631 790.709 520.967 787.796 533.435 785.355C551.94 781.731 570.835 777.269 589.105 772.596C599.26 769.998 609.36 766.802 619.626 764.694C629.938 762.576 639.659 761.203 650.171 760.72C653.739 760.492 657.345 760.613 660.92 760.643C650.658 764.06 639.866 766.297 629.338 768.747C618.335 771.307 607.39 774.018 596.357 776.46L497.374 798.156Z"/><path fill="#FEFEFE" d="M576.332 878.643C583.257 874.551 592.318 872.334 599.922 869.622L655.926 849.973C711.501 829.549 767.363 809.918 823.497 791.086L871.567 774.651C880.374 771.667 889.594 767.864 898.704 766.102C900.41 765.839 902 765.561 903.539 766.383C904.943 772.833 903.857 781.087 903.699 787.713C892.561 792.48 881.5 796.098 870.094 800.079C864.246 802.121 858.524 804.52 852.679 806.58C844.641 809.412 836.495 811.887 828.419 814.597L748.199 842.365C707.318 856.72 666.623 871.601 626.124 887.003C610.773 892.713 595.577 898.739 580.123 904.18C579.162 904.521 578.549 904.654 577.529 904.586C575.703 900.304 578.02 885.593 576.332 878.643Z"/><path fill="#FEFEFE" d="M715.661 878.599C712.214 877.79 695.982 875.041 694.506 873.138C695.394 871.855 696.711 871.304 698.112 870.718C715.059 863.634 733.112 858.296 750.471 852.256C771.859 844.814 793.009 836.712 814.481 829.511L815.095 829.639C816.22 831.571 813.02 880.098 812.056 885.13C810.962 890.838 807.706 895.69 802.892 898.935C793.619 897.907 784.311 894.888 775.23 892.739L715.661 878.599Z"/><path fill="#FEFEFE" d="M692.452 906.937C693.251 899.576 692.636 891.508 694.114 884.334C694.804 885.631 694.876 886.757 695.922 887.931C697.206 887.373 697.742 885.802 698.371 884.623C700.581 885.079 702.779 885.323 705.019 885.556C702.596 889.016 700.364 892.478 698.308 896.169C696.22 899.708 694.251 903.242 692.452 906.937Z"/></svg>